<svg xmlns="http://www.w3.org/2000/svg" xmlns:xlink="http://www.w3.org/1999/xlink" width="64" height="64" viewbox="0 0 64 64"><defs><filter id="blur" width="200%" height="200%"><feGaussianBlur in="SourceAlpha" stdDeviation="3"/><feOffset dx="0" dy="4" result="offsetblur"/><feComponentTransfer><feFuncA type="linear" slope=".05"/></feComponentTransfer><feMerge><feMergeNode/><feMergeNode in="SourceGraphic"/></feMerge></filter></defs><g filter="url(#blur)" id="rainy-5"><g transform="translate(20,10)"><g><path d="M47.7 35.4c0-4.6-3.7-8.2-8.2-8.2-1 0-1.9.2-2.8.5-.3-3.4-3.1-6.2-6.6-6.2-3.7.0-6.7 3-6.7 6.7.0.8.2 1.6.4 2.3-.3-.1-.7-.1-1-.1-3.7.0-6.7 3-6.7 6.7.0 3.6 2.9 6.6 6.5 6.7h17.2C44.2 43.3 47.7 39.8 47.7 35.4z" fill="#57a0ee" stroke="#fff" stroke-linejoin="round" stroke-width="1.2" transform="translate(-20,-11)"/></g></g><g transform="translate(34,46), rotate(10)"><path class="am-weather-rain-1" fill="none" stroke="#91c0f8" stroke-dasharray="4,7" stroke-linecap="round" stroke-width="2" transform="translate(-6,1)" d="M0 0V8z" /><path class="am-weather-rain-2" fill="none" stroke="#91c0f8" stroke-dasharray="4,7" stroke-linecap="round" stroke-width="2" transform="translate(0,-1)" d="M0 0V8z" /></g></g></svg>