<svg width="512" height="512" xmlns="http://www.w3.org/2000/svg"><g><title>background</title><path fill="none" id="canvas_background" d="M-1-1h802v602H-1z"/></g><g><title>Layer 1</title><g stroke="null" id="svg_71"><path stroke="null" id="svg_1" fill="#c9f0ff" d="m167.19517 152.55887c-2.41747.0-4.37739-1.94584-4.37739-4.34594V120.5553c0-2.4001 1.95992-4.34369 4.37739-4.34369 2.41519.0 4.37511 1.94359 4.37511 4.34369v27.65763c0 2.4001-1.95992 4.34594-4.37511 4.34594zm0 0"/><path stroke="null" id="svg_2" fill="#fa0" d="m185.88388 137.60232h-42.7086c-1.65489.0-2.99338 1.33113-2.99338 2.97187v32.9392h48.69536v-32.9392c0-1.64075-1.33848-2.97187-2.99338-2.97187zm0 0"/><path stroke="null" id="svg_3" fill="#ff9500" d="m188.87954 140.5742v32.9392h-10.53032v-32.9392c0-1.64075-1.34076-2.97187-2.99338-2.97187h10.53032c1.65262.0 2.99338 1.33113 2.99338 2.97187zm0 0"/><path stroke="null" id="svg_4" fill="#ffcd6b" d="m196.76932 165.28256h-64.47947c-1.65261.0-2.99338 1.33113-2.99338 2.97187v31.01144h70.46622v-31.01144c0-1.64075-1.34076-2.97187-2.99338-2.97187zm0 0"/><path stroke="null" id="svg_5" fill="#ffc143" d="m199.7627 168.25217v31.0137h-10.4939v-31.0137c0-1.64074-1.34076-2.97187-2.99338-2.97187h10.4939c1.65262.0 2.99338 1.33113 2.99338 2.97187zm0 0"/><path stroke="null" id="svg_6" fill="#ea4444" d="m325.15234 110.05317c-1.18142-1.27915-3.21647-1.28367-4.40243-.00904l-30.32989 32.58212v8.76647h64.81864v-8.76647l-30.08632-32.57309zm0 0"/><path stroke="null" id="svg_7" fill="#fa0" d="m209.05925 404.86301h-89.05933v-209.02779c0-1.64074 1.34076-2.97187 2.99338-2.97187h83.07257c1.65489.0 2.99338 1.33113 2.99338 2.97187v209.02779zm0 0"/><path stroke="null" id="svg_8" fill="#ffcd6b" d="m168.52683 207.49898h-25.61105c-2.41064.0-4.36373 1.93906-4.36373 4.33238s1.95309 4.33238 4.36373 4.33238h25.61105c2.41064.0 4.36373-1.93906 4.36373-4.33238s-1.95309-4.33238-4.36373-4.33238zm0 0"/><path stroke="null" id="svg_9" fill="#ffcd6b" d="m168.52683 229.46372h-25.61105c-2.41064.0-4.36373 1.93907-4.36373 4.33239s1.95309 4.33238 4.36373 4.33238h25.61105c2.41064.0 4.36373-1.93907 4.36373-4.33238s-1.95309-4.33239-4.36373-4.33239zm0 0"/><path stroke="null" id="svg_10" fill="#ffcd6b" d="m168.52683 251.42847h-25.61105c-2.41064.0-4.36373 1.93906-4.36373 4.33238s1.95309 4.33238 4.36373 4.33238h25.61105c2.41064.0 4.36373-1.93906 4.36373-4.33238s-1.95309-4.33238-4.36373-4.33238zm0 0"/><path stroke="null" id="svg_11" fill="#ffcd6b" d="m168.52683 274.6927h-25.61105c-2.41064.0-4.36373 1.93906-4.36373 4.33238.0 2.39332 1.95309 4.33238 4.36373 4.33238h25.61105c2.41064.0 4.36373-1.93906 4.36373-4.33238.0-2.39332-1.95309-4.33238-4.36373-4.33238zm0 0"/><path stroke="null" id="svg_12" fill="#ffcd6b" d="m168.52683 296.65744h-25.61105c-2.41064.0-4.36373 1.94132-4.36373 4.33464.0 2.39332 1.95309 4.33238 4.36373 4.33238h25.61105c2.41064.0 4.36373-1.93906 4.36373-4.33238.0-2.39332-1.95309-4.33464-4.36373-4.33464zm0 0"/><path stroke="null" id="svg_13" fill="#ffcd6b" d="m168.52683 318.62218h-25.61105c-2.41064.0-4.36373 1.93907-4.36373 4.33238.0 2.39332 1.95309 4.33239 4.36373 4.33239h25.61105c2.41064.0 4.36373-1.93907 4.36373-4.33239.0-2.39106-1.95309-4.33238-4.36373-4.33238zm0 0"/><path stroke="null" id="svg_14" fill="#ffcd6b" d="m168.52683 339.93606h-25.61105c-2.41064.0-4.36373 1.93906-4.36373 4.33238.0 2.39332 1.95309 4.33238 4.36373 4.33238h25.61105c2.41064.0 4.36373-1.93906 4.36373-4.33238.0-2.39332-1.95309-4.33238-4.36373-4.33238zm0 0"/><path stroke="null" id="svg_15" fill="#ff9500" d="m209.06153 195.83522v209.02553h-13.50094V195.83522c0-1.64074-1.34076-2.97187-2.99338-2.97187h13.50094c1.65034.0 2.99338 1.33113 2.99338 2.97187zm0 0"/><path stroke="null" id="svg_16" fill="#c9f0ff" d="m418.36371 404.86301h-63.12505v-246.30164h58.33564c2.6451.0 4.78941 2.1289 4.78941 4.755v241.54664zm0 0"/><path stroke="null" id="svg_17" fill="#9ae7fd" d="m418.36371 404.86301h-13.1777v-246.30164h8.38829c2.6451.0 4.78941 2.1289 4.78941 4.755v241.54664zm0 0"/><path stroke="null" id="svg_18" fill="#d93131" d="m364.16872 249.35607v155.50469h-13.68988v-155.50469c0-1.63848-1.34076-2.97187-2.99338-2.97187h13.68988c1.6549.0 2.99338 1.33339 2.99338 2.97187zm0 0"/><path stroke="null" id="svg_19" fill="#fab2b2" d="m355.49361 255.90549h-65.07359V142.62626h65.07359v113.27923zm0 0"/><path stroke="null" id="svg_20" fill="#f89696" d="m355.49133 255.90549H342.6141V142.62626h12.87723v113.27923zm0 0"/><path stroke="null" id="svg_21" fill="#d93131" d="m355.23866 142.624-12.62683.00226-25.62243-28.53676 3.76051-4.04085c1.18597-1.27915 3.22101-1.27915 4.40471.00452l30.08404 32.57083zm0 0"/><path stroke="null" id="svg_22" fill="#0573cf" d="m396.21497 180.80636h-12.5722c-2.47893.0-4.48894-1.99556-4.48894-4.45668.0-2.46338 2.01-4.45894 4.48894-4.45894h12.5722c2.4812.0 4.49121 1.99556 4.49121 4.45894.0 2.46111-2.01 4.45668-4.49121 4.45668zm0 0"/><path stroke="null" id="svg_23" fill="#0573cf" d="m396.21497 209.28662h-12.5722c-2.47893.0-4.48894-1.99556-4.48894-4.45894.0-2.46111 2.01-4.45668 4.48894-4.45668h12.5722c2.4812.0 4.49121 1.99556 4.49121 4.45668.0 2.46338-2.01 4.45894-4.49121 4.45894zm0 0"/><path stroke="null" id="svg_24" fill="#0573cf" d="m396.21497 237.76463h-12.5722c-2.47893.0-4.48894-1.99556-4.48894-4.45894.0-2.46112 2.01-4.45668 4.48894-4.45668h12.5722c2.4812.0 4.49121 1.99556 4.49121 4.45668.0 2.46338-2.01 4.45894-4.49121 4.45894zm0 0"/><path stroke="null" id="svg_25" fill="#0573cf" d="m396.21497 266.24263h-12.5722c-2.47893.0-4.48894-1.99556-4.48894-4.45894.0-2.46112 2.01-4.45668 4.48894-4.45668h12.5722c2.4812.0 4.49121 1.99556 4.49121 4.45668.0 2.46338-2.01 4.45894-4.49121 4.45894zm0 0"/><path stroke="null" id="svg_26" fill="#0573cf" d="m396.21497 294.72064h-12.5722c-2.47893.0-4.48894-1.99556-4.48894-4.45668.0-2.46338 2.01-4.45894 4.48894-4.45894h12.5722c2.4812.0 4.49121 1.99556 4.49121 4.45894.0 2.46111-2.01 4.45668-4.49121 4.45668zm0 0"/><path stroke="null" id="svg_27" fill="#0573cf" d="m396.21497 323.19864h-12.5722c-2.47893.0-4.48894-1.99556-4.48894-4.45668.0-2.46338 2.01-4.45894 4.48894-4.45894h12.5722c2.4812.0 4.49121 1.99556 4.49121 4.45894.0 2.46112-2.01 4.45668-4.49121 4.45668zm0 0"/><path stroke="null" id="svg_28" fill="#0573cf" d="m396.21497 351.67891h-12.5722c-2.47893.0-4.48894-1.99556-4.48894-4.45894.0-2.46112 2.01-4.45668 4.48894-4.45668h12.5722c2.4812.0 4.49121 1.99556 4.49121 4.45668.0 2.46338-2.01 4.45894-4.49121 4.45894zm0 0"/><path stroke="null" id="svg_29" fill="#0573cf" d="m160.5073 404.86301v-128.44369c0-2.5018 2.28089-4.39566 4.76209-3.95044l89.01608 15.92608c1.92578.34352 3.32572 2.00686 3.32572 3.95044v112.51761h-97.1039zm0 0"/><path stroke="null" id="svg_30" fill="#005aaf" d="m257.6112 292.34766v112.51535h-9.86108v-115.24541c0-.95823-.34145-1.84866-.91509-2.54474l7.44817 1.32209c1.92578.34578 3.328 2.00912 3.328 3.9527zm0 0"/><path stroke="null" id="svg_31" fill="#c9f0ff" d="m232.19364 404.86301h-46.26878v-45.44141c0-12.07507 9.85881-21.86304 22.02126-21.86304h2.22625c12.16246.0 22.02126 9.78797 22.02126 21.86304v45.44141zm0 0"/><path stroke="null" id="svg_32" fill="#9ae7fd" d="m232.19137 359.42386v45.4369h-8.98014v-45.4369c0-10.93604-8.08781-19.99404-18.64091-21.60993 1.10175-.16724 2.22625-.25538 3.37581-.25538h2.22853c12.1579.0 22.01671 9.78797 22.01671 21.86531zm0 0"/><path stroke="null" id="svg_37" fill="#ea4444" d="m364.16644 404.86301h-82.42154v-155.50469c0-1.64074 1.33849-2.97187 2.99338-2.97187h76.43705c1.65262.0 2.99338 1.33113 2.99338 2.97187v155.50469h-.00228zm0 0"/><path stroke="null" id="svg_38" fill="#ececf1" d="m339.46821 404.86301h-30.19103v-32.69738c0-1.64301 1.34076-2.97187 2.99338-2.97187h24.20427c1.6549.0 2.99338 1.32887 2.99338 2.97187v32.69738zm0 0"/><path stroke="null" id="svg_39" fill="#d3d3d8" d="m339.47049 372.16563v32.69513h-10.73975v-32.69513c0-1.64075-1.34076-2.97187-2.99565-2.97187h10.74202c1.65262.0 2.99338 1.33113 2.99338 2.97187zm0 0"/><path stroke="null" id="svg_40" fill="#ea4444" d="m338.99701 177.75538c-2.41064.0-4.36373-1.93906-4.36373-4.33238v-7.33363c0-2.39332 1.95309-4.33464 4.36373-4.33464 2.41064.0 4.36373 1.94132 4.36373 4.33464v7.33363c0 2.39332-1.95537 4.33238-4.36373 4.33238zm0 0"/><path stroke="null" id="svg_41" fill="#ea4444" d="m338.99701 202.49086c-2.41064.0-4.36373-1.93906-4.36373-4.33238v-7.3359c0-2.39332 1.95309-4.33238 4.36373-4.33238 2.41064.0 4.36373 1.93906 4.36373 4.33238v7.3359c0 2.39332-1.95537 4.33238-4.36373 4.33238zm0 0"/><path stroke="null" id="svg_42" fill="#ea4444" d="m338.99701 227.22408c-2.41064.0-4.36373-1.93906-4.36373-4.33238v-7.33363c0-2.39332 1.95309-4.33238 4.36373-4.33238 2.41064.0 4.36373 1.93906 4.36373 4.33238v7.33363c0 2.39332-1.95537 4.33238-4.36373 4.33238zm0 0"/><path stroke="null" id="svg_43" fill="#ea4444" d="m321.44419 177.75538c-2.41063.0-4.36373-1.93906-4.36373-4.33238v-7.33363c0-2.39332 1.9531-4.33464 4.36373-4.33464 2.41064.0 4.36374 1.94132 4.36374 4.33464v7.33363c0 2.39332-1.9531 4.33238-4.36374 4.33238zm0 0"/><path stroke="null" id="svg_44" fill="#ea4444" d="m321.44419 202.49086c-2.41063.0-4.36373-1.93906-4.36373-4.33238v-7.3359c0-2.39332 1.9531-4.33238 4.36373-4.33238 2.41064.0 4.36374 1.93906 4.36374 4.33238v7.3359c0 2.39332-1.9531 4.33238-4.36374 4.33238zm0 0"/><path stroke="null" id="svg_45" fill="#ea4444" d="m321.44419 227.22408c-2.41063.0-4.36373-1.93906-4.36373-4.33238v-7.33363c0-2.39332 1.9531-4.33238 4.36373-4.33238 2.41064.0 4.36374 1.93906 4.36374 4.33238v7.33363c0 2.39332-1.9531 4.33238-4.36374 4.33238zm0 0"/><path stroke="null" id="svg_46" fill="#ea4444" d="m303.89365 177.75538c-2.41064.0-4.36373-1.93906-4.36373-4.33238v-7.33363c0-2.39332 1.95309-4.33464 4.36373-4.33464 2.41064.0 4.36373 1.94132 4.36373 4.33464v7.33363c0 2.39332-1.95309 4.33238-4.36373 4.33238zm0 0"/><path stroke="null" id="svg_47" fill="#ea4444" d="m303.89365 202.49086c-2.41064.0-4.36373-1.93906-4.36373-4.33238v-7.3359c0-2.39332 1.95309-4.33238 4.36373-4.33238 2.41064.0 4.36373 1.93906 4.36373 4.33238v7.3359c0 2.39332-1.95309 4.33238-4.36373 4.33238zm0 0"/><path stroke="null" id="svg_48" fill="#ea4444" d="m303.89365 227.22408c-2.41064.0-4.36373-1.93906-4.36373-4.33238v-7.33363c0-2.39332 1.95309-4.33238 4.36373-4.33238 2.41064.0 4.36373 1.93906 4.36373 4.33238v7.33363c0 2.39332-1.95309 4.33238-4.36373 4.33238zm0 0"/><g stroke="null" id="svg_49" fill="#fab2b2"><path stroke="null" id="svg_50" d="m338.89913 275.21701c-2.41064.0-4.36373-1.93907-4.36373-4.33239v-9.71339c0-2.39332 1.95309-4.33238 4.36373-4.33238s4.36373 1.93906 4.36373 4.33238v9.71339c0 2.39332-1.95309 4.33239-4.36373 4.33239zm0 0"/><path stroke="null" id="svg_51" d="m338.89913 302.31191c-2.41064.0-4.36373-1.93907-4.36373-4.33238v-9.7134c0-2.39106 1.95309-4.33238 4.36373-4.33238s4.36373 1.93906 4.36373 4.33238v9.7134c0 2.39331-1.95309 4.33238-4.36373 4.33238zm0 0"/><path stroke="null" id="svg_52" d="m338.89913 328.84859c-2.41064.0-4.36373-1.93906-4.36373-4.33238v-9.71339c0-2.39106 1.95309-4.33238 4.36373-4.33238s4.36373 1.93906 4.36373 4.33238v9.71339c0 2.39332-1.95309 4.33238-4.36373 4.33238zm0 0"/><path stroke="null" id="svg_53" d="m338.89913 355.80111c-2.41064.0-4.36373-1.93906-4.36373-4.33238v-9.71339c0-2.39332 1.95309-4.33238 4.36373-4.33238s4.36373 1.93906 4.36373 4.33238v9.71339c0 2.39332-1.95309 4.33238-4.36373 4.33238zm0 0"/><path stroke="null" id="svg_54" d="m321.34403 275.21701c-2.41064.0-4.36373-1.93907-4.36373-4.33239v-9.71339c0-2.39332 1.95309-4.33238 4.36373-4.33238 2.40836.0 4.36373 1.93906 4.36373 4.33238v9.71339c0 2.39332-1.95309 4.33239-4.36373 4.33239zm0 0"/><path stroke="null" id="svg_55" d="m321.34403 302.31191c-2.41064.0-4.36373-1.93907-4.36373-4.33238v-9.7134c0-2.39106 1.95309-4.33238 4.36373-4.33238 2.40836.0 4.36373 1.93906 4.36373 4.33238v9.7134c0 2.39331-1.95309 4.33238-4.36373 4.33238zm0 0"/><path stroke="null" id="svg_56" d="m321.34403 328.84859c-2.41064.0-4.36373-1.93906-4.36373-4.33238v-9.71339c0-2.39106 1.95309-4.33238 4.36373-4.33238 2.40836.0 4.36373 1.93906 4.36373 4.33238v9.71339c0 2.39332-1.95309 4.33238-4.36373 4.33238zm0 0"/><path stroke="null" id="svg_57" d="m321.34403 355.80111c-2.41064.0-4.36373-1.93906-4.36373-4.33238v-9.71339c0-2.39332 1.95309-4.33238 4.36373-4.33238 2.40836.0 4.36373 1.93906 4.36373 4.33238v9.71339c0 2.39332-1.95309 4.33238-4.36373 4.33238zm0 0"/><path stroke="null" id="svg_58" d="m303.98925 275.21701c-2.41064.0-4.36373-1.93907-4.36373-4.33239v-9.71339c0-2.39332 1.95309-4.33238 4.36373-4.33238s4.36373 1.93906 4.36373 4.33238v9.71339c0 2.39332-1.95309 4.33239-4.36373 4.33239zm0 0"/><path stroke="null" id="svg_59" d="m303.98925 302.31191c-2.41064.0-4.36373-1.93907-4.36373-4.33238v-9.7134c0-2.39106 1.95309-4.33238 4.36373-4.33238s4.36373 1.93906 4.36373 4.33238v9.7134c0 2.39331-1.95309 4.33238-4.36373 4.33238zm0 0"/><path stroke="null" id="svg_60" d="m303.98925 328.84859c-2.41064.0-4.36373-1.93906-4.36373-4.33238v-9.71339c0-2.39106 1.95309-4.33238 4.36373-4.33238s4.36373 1.93906 4.36373 4.33238v9.71339c0 2.39332-1.95309 4.33238-4.36373 4.33238zm0 0"/><path stroke="null" id="svg_61" d="m303.98925 355.80111c-2.41064.0-4.36373-1.93906-4.36373-4.33238v-9.71339c0-2.39332 1.95309-4.33238 4.36373-4.33238s4.36373 1.93906 4.36373 4.33238v9.71339c0 2.39332-1.95309 4.33238-4.36373 4.33238zm0 0"/></g><path stroke="null" id="svg_62" fill="#c9f0ff" d="m190.33412 305.03519c-2.41064.0-4.36373-1.93906-4.36373-4.33238v-6.10873c0-2.39332 1.95309-4.33238 4.36373-4.33238 2.41064.0 4.36373 1.93906 4.36373 4.33238v6.10873c0 2.39331-1.95309 4.33238-4.36373 4.33238zm0 0"/><path stroke="null" id="svg_63" fill="#c9f0ff" d="m210.75057 305.03519c-2.41064.0-4.36601-1.93906-4.36601-4.33238v-6.10873c0-2.39332 1.95537-4.33238 4.36601-4.33238 2.40836.0 4.36373 1.93906 4.36373 4.33238v6.10873c0 2.39331-1.95537 4.33238-4.36373 4.33238zm0 0"/><path stroke="null" id="svg_64" fill="#c9f0ff" d="m231.16474 305.03519c-2.41064.0-4.36373-1.93906-4.36373-4.33238v-6.10873c0-2.39332 1.95309-4.33238 4.36373-4.33238s4.36373 1.93906 4.36373 4.33238v6.10873c0 2.39331-1.95309 4.33238-4.36373 4.33238zm0 0"/><path stroke="null" id="svg_65" fill="#c9f0ff" d="m190.33412 328.42824c-2.41064.0-4.36373-1.93906-4.36373-4.33238v-6.10872c0-2.39106 1.95309-4.33238 4.36373-4.33238 2.41064.0 4.36373 1.93906 4.36373 4.33238v6.10872c0 2.39332-1.95309 4.33238-4.36373 4.33238zm0 0"/><path stroke="null" id="svg_66" fill="#c9f0ff" d="m210.75057 328.42824c-2.41064.0-4.36601-1.93906-4.36601-4.33238v-6.10872c0-2.39106 1.95537-4.33238 4.36601-4.33238 2.40836.0 4.36373 1.93906 4.36373 4.33238v6.10872c0 2.39332-1.95537 4.33238-4.36373 4.33238zm0 0"/><path stroke="null" id="svg_67" fill="#c9f0ff" d="m231.16474 328.42824c-2.41064.0-4.36373-1.93906-4.36373-4.33238v-6.10872c0-2.39106 1.95309-4.33238 4.36373-4.33238s4.36373 1.93906 4.36373 4.33238v6.10872c0 2.39332-1.95309 4.33238-4.36373 4.33238zm0 0"/><path stroke="null" id="svg_68" fill="#ffcd6b" d="m192.02771 207.49898h-6.60137c-2.40836.0-4.36373 1.93906-4.36373 4.33238s1.95537 4.33238 4.36373 4.33238h6.60137c2.41064.0 4.36373-1.93906 4.36373-4.33238s-1.95309-4.33238-4.36373-4.33238zm0 0"/><path stroke="null" id="svg_69" fill="#ffcd6b" d="m192.02771 229.46372h-6.60137c-2.40836.0-4.36373 1.93907-4.36373 4.33239s1.95537 4.33238 4.36373 4.33238h6.60137c2.41064.0 4.36373-1.93907 4.36373-4.33238s-1.95309-4.33239-4.36373-4.33239zm0 0"/><path stroke="null" id="svg_70" fill="#ffcd6b" d="m192.02771 251.42847h-6.60137c-2.40836.0-4.36373 1.93906-4.36373 4.33238s1.95537 4.33238 4.36373 4.33238h6.60137c2.41064.0 4.36373-1.93906 4.36373-4.33238s-1.95309-4.33238-4.36373-4.33238zm0 0"/></g></g></svg>