<svg id="Capa_1" xmlns="http://www.w3.org/2000/svg" xmlns:xlink="http://www.w3.org/1999/xlink" viewBox="0 0 512 512" style="enable-background:new 0 0 512 512"><g><path style="fill:#ff3636" d="M441.443 133.2c-17.999-58.2-65.4-105.601-123.6-123.6-20.4-6.301-41.4-9.6-61.8-9.6-41.7.0-81.899 12.9-115.499 38.101C90.742 74.7 61.043 133.2 61.043 195c0 42.599 13.5 83.101 39 117.001l156 199.999 156-199.999C450.142 261 460.943 195.901 441.443 133.2zM256.043 3e2c-57.9.0-105-47.1-105-105s47.1-105 105-105 105 47.1 105 105S313.943 3e2 256.043 3e2z"/></g><path style="fill:#f40000" d="M412.043 312.001 256.043 512V3e2c57.9.0 105-47.1 105-105s-47.1-105-105-105V0c20.4.0 41.4 3.3 61.8 9.6 58.2 17.999 105.601 65.4 123.6 123.6C460.943 195.901 450.142 261 412.043 312.001z"/><g/><g/><g/><g/><g/><g/><g/><g/><g/><g/><g/><g/><g/><g/><g/></svg>