<svg width="511.98" height="511.98" xmlns="http://www.w3.org/2000/svg"><g><title>background</title><path height="513.98" width="513.98" y="-1" x="-1" d="m-1-1h513.98v513.98H-1V-1z" id="canvas_background" fill="none"/></g><g><title>Layer 1</title><g fill="#4f667a" id="svg_2" stroke="null"><path fill="#f75454" d="m322.99022 147.20751h53.48428c2.9243.0 5.29379-2.04622 5.29379-4.5702s-2.3695-4.5702-5.29379-4.5702h-53.48428c-2.9243.0-5.29379 2.04622-5.29379 4.5702s2.37021 4.5702 5.29379 4.5702z" id="svg_3" stroke="null"/><path fill="#f75454" d="m322.99022 168.30903h26.74214c2.9243.0 5.29379-2.04622 5.29379-4.5702s-2.3695-4.5702-5.29379-4.5702h-26.74214c-2.9243.0-5.29379 2.04622-5.29379 4.5702s2.37021 4.5702 5.29379 4.5702z" id="svg_4" stroke="null"/><path fill="#f75454" d="m376.47521 180.49622h-53.48428c-2.9243.0-5.29379 2.04622-5.29379 4.5702s2.3695 4.5702 5.29379 4.5702h53.48428c2.9243.0 5.29379-2.04622 5.29379-4.5702s-2.37021-4.5702-5.29379-4.5702z" id="svg_5" stroke="null"/><path fill="#f75454" d="m322.99022 210.73814h26.74214c2.9243.0 5.29379-2.04622 5.29379-4.5702s-2.3695-4.5702-5.29379-4.5702h-26.74214c-2.9243.0-5.29379 2.04622-5.29379 4.5702s2.37021 4.5702 5.29379 4.5702z" id="svg_6" stroke="null"/><path fill="#f75454" d="m376.47521 222.61151h-53.48428c-2.9243.0-5.29379 2.04622-5.29379 4.5702s2.3695 4.5702 5.29379 4.5702h53.48428c2.9243.0 5.29379-2.04622 5.29379-4.5702s-2.37021-4.5702-5.29379-4.5702z" id="svg_7" stroke="null"/><path fill="#f75454" d="m322.99022 252.85343h26.74214c2.9243.0 5.29379-2.04622 5.29379-4.5702s-2.3695-4.5702-5.29379-4.5702h-26.74214c-2.9243.0-5.29379 2.04622-5.29379 4.5702s2.37021 4.5702 5.29379 4.5702z" id="svg_8" stroke="null"/><path fill="#f75454" d="m376.47521 265.1241h-53.48428c-2.9243.0-5.29379 2.04622-5.29379 4.5702s2.3695 4.5702 5.29379 4.5702h53.48428c2.9243.0 5.29379-2.04622 5.29379-4.5702s-2.37021-4.5702-5.29379-4.5702z" id="svg_9" stroke="null"/><path fill="#f75454" d="m349.73236 286.22562h-26.74214c-2.9243.0-5.29379 2.04622-5.29379 4.5702s2.3695 4.5702 5.29379 4.5702h26.74214c2.9243.0 5.29379-2.04622 5.29379-4.5702s-2.3695-4.5702-5.29379-4.5702z" id="svg_10" stroke="null"/></g><path d="m330.9288 356.92476c0 17.54956-7.97598 33.99618-22.4457 46.32353-14.21561 12.10189-32.96269 18.73172-52.90267 18.73172-.35998.0-.71996.0-1.07993-.0061-3.19039-.04265-6.3455-.24983-9.4653-.63374-15.93786-1.93776-30.74637-8.25073-42.42801-18.23813-13.9615-11.93126-21.90925-27.77461-22.37511-44.59904-.62819-22.80224 12.6204-44.17249 34.75553-56.40233V145.0382c0-16.16022 12.73335-29.79768 29.99818-33.82556 3.37391-.79217 6.92428-1.21262 10.58759-1.21262 22.37511.0 40.58577 15.71539 40.58577 35.03818v157.06247c21.52105 11.90689 34.76964 32.66778 34.76964 54.8241l-1e-5-1e-5h2e-5z" fill="#e9f5ff" id="svg_11" stroke="null"/><path d="m330.9288 356.92476c0 17.54956-7.97598 33.99618-22.4457 46.32353-14.21561 12.10189-32.96269 18.73172-52.90267 18.73172-13.19215.0-21.17519.0-21.17519.0 3.58567.0 7.13603-.21328 10.62994-.63983 15.90961-1.92557 30.61931-8.16543 42.27273-18.09189 14.47676-12.32735 22.4457-28.77396 22.4457-46.32353.0-22.15632-13.24861-24.52672-34.76964-36.43362V145.03819c0-16.16022-12.74041-29.79768-29.99818-33.82556 3.37391-.79217 6.92428-1.21262 10.58759-1.21262 22.37511.0 40.58577 15.71539 40.58577 35.03818v157.06247c21.52105 11.90689 34.76964 32.66778 34.76964 54.8241v1e-5-1e-5h1e-5z" fill="#cdeaf7" id="svg_12" stroke="null"/><g id="svg_13" stroke="null"><path d="m309.75361 357.01617c0 12.61374-5.73141 24.44142-16.14255 33.30151-10.21349 8.70166-23.72326 13.47294-38.08709 13.47294-.24705.0-.48703.0-.72701-.0061-2.71043-.03046-5.39262-.24374-8.03245-.61545-10.9758-1.56606-21.15401-6.03876-29.25704-12.96717-10.05116-8.58588-15.77551-19.96872-16.10725-32.04013-.46586-17.04379 9.8394-32.97246 26.89248-41.57661 4.84912-2.44354 7.87011-6.98326 7.87011-11.83376v-159.62179c0-6.49578 4.30562-12.14454 10.58759-14.92322 2.6469-1.17606 5.64671-1.83417 8.82299-1.83417 10.70053.0 19.40352 7.5195 19.40352 16.75739V304.7514c0 4.8505 3.02099 9.39023 7.87011 11.83376 16.59428 8.37261 26.9066 23.86253 26.9066 40.43101l1e-5-2e-5v2e-5h-2e-5z" fill="#ff6e6e" id="svg_14" stroke="null"/><path d="m309.75361 357.01617c0 12.61374-5.73141 24.44142-16.14255 33.30151-10.21349 8.70166-23.72326 13.47294-38.08709 13.47294-.24705.0-.48703.0-.72701-.0061-2.71043-.03046-5.39262-.24374-8.03245-.61545 10.98992-1.54778 21.12578-5.97172 29.20058-12.85139 10.41113-8.8601 16.14255-20.68776 16.14255-33.30151.0-16.5685-10.31231-32.05842-26.9066-40.43101-4.84912-2.44354-7.87011-6.98326-7.87011-11.83376v-159.62179c0-6.49578-4.30562-12.13844-10.58053-14.92322 2.6469-1.17606 5.64671-1.83417 8.82299-1.83417 10.70053.0 19.40352 7.5195 19.40352 16.75739V304.7514c0 4.8505 3.02099 9.39023 7.87011 11.83376 16.59428 8.37261 26.9066 23.86253 26.9066 40.43101v-1e-5 1e-5h-1e-5z" fill="#f44e92" id="svg_15" stroke="null"/></g><path d="m274.97691 145.12959v39.93744h-38.81411v-39.93744c0-6.49578 4.30562-12.14454 10.58759-14.92322 2.6469-1.17606 5.64671-1.83417 8.82299-1.83417 10.70053.0 19.40352 7.5195 19.40352 16.75739h1e-5z" fill="#4f667a" id="svg_16" stroke="null"/><path d="m274.97691 145.12959v39.93744h-17.64598v-39.93744c0-6.49578-4.30562-12.13844-10.58053-14.92322 2.6469-1.17606 5.64671-1.83417 8.82299-1.83417 10.70053.0 19.40352 7.5195 19.40352 16.75739z" fill="#3a5366" id="svg_17" stroke="null"/></g></svg>