<svg width="512" height="512.002" xmlns="http://www.w3.org/2000/svg"><g><title>background</title><path fill="none" id="canvas_background" d="M-1-1h802v602H-1z"/></g><g><title>Layer 1</title><g stroke="null" id="svg_3"><path fill="#ddd" stroke="null" id="svg_1" d="m263.78175 258.63385c24.12641.0 45.01798-8.25982 62.08782-24.55645 17.06983-16.29398 25.72297-36.23066 25.72297-59.26312.0-23.0245-8.65313-42.96384-25.72575-59.26312-17.07262-16.29132-37.9614-24.55114-62.08503-24.55114-24.12919.0-45.01519 8.25982-62.08502 24.5538s-25.72575 36.23331-25.72575 59.26047c0 23.03246 8.65591 42.9718 25.72853 59.26577 17.07262 16.29132 37.9614 24.5538 62.08225 24.5538zm0 0"/><path fill="#ddd" stroke="null" id="svg_2" d="m417.42698 358.59606c-.49232-6.78097-1.48809-14.17791-2.95392-21.98904-1.47974-7.86953-3.38504-15.30895-5.66584-22.10851-2.3559-7.02789-5.56015-13.96816-9.52095-20.61903-4.111-6.9031-8.93962-12.91411-14.35791-17.86044-5.66584-5.17467-12.60281-9.33512-20.62454-12.36983-7.99392-3.01878-16.85288-4.54808-26.32932-4.54808-3.7216.0-7.32081 1.45762-14.27169 5.77736-4.27789 2.663-9.28174 5.74285-14.86692 9.14927-4.77577 2.90461-11.24545 5.62602-19.23659 8.0899-7.79644 2.40812-15.71249 3.62944-23.52562 3.62944-7.81312.0-15.72638-1.22132-23.53117-3.62944-7.9828-2.46122-14.45248-5.18264-19.22269-8.08724-5.53233-3.37456-10.53896-6.4544-14.88082-9.15457-6.94253-4.31975-10.54453-5.77736-14.26612-5.77736-9.47922.0-18.3354 1.53195-26.32655 4.55339-8.01617 3.02941-14.95592 7.18985-20.62733 12.36983-5.4155 4.94899-10.24691 10.95735-14.35235 17.85779-3.95802 6.65087-7.16226 13.58849-9.52094 20.62169-2.27802 6.79955-4.18332 14.23632-5.66305 22.10585-1.46584 7.80051-2.4616 15.2001-2.95392 21.997-.48398 6.65884-.72875 13.56991-.72875 20.55.0 18.16577 6.04968 32.87203 17.97937 43.71787 11.78228 10.70247 27.37238 16.13202 46.33083 16.13202h175.54367c18.95845.0 34.54299-5.4269 46.32804-16.13202 11.93247-10.83787 17.98215-25.54678 17.98215-43.72052-.00278-7.01195-.25033-13.92834-.73708-20.55531v1e-5zm0 0"/></g></g></svg>