<svg width="52.502" height="52.502" xmlns="http://www.w3.org/2000/svg"><g><title>background</title><path fill="none" id="canvas_background" d="M-1-1h802v602H-1z"/></g><g><title>Layer 1</title><g stroke="null" id="svg_1"><path stroke="null" id="svg_2" fill="#26c6da" d="m23.2358 20.2274v-6.82005l-12.24374 11.29429L23.2358 36.10405v-6.81948c0 0 10.7154-2.46525 18.09161 9.05717.0.0 1.83887-8.79451-6.39953-15.16736 61e-5-57e-5-3.64791-3.17227-11.69208-2.94698z"/><path stroke="null" id="svg_3" fill="#26c6da" d="m41.6209 39.9058-.81653-1.2748c-6.21929-9.71608-14.85774-9.17208-16.95966-8.87603v7.71784l-13.71484-12.77288 13.71484-12.6523v7.60293c7.75007-.05831 11.35231 2.98207 11.49967 3.11001 8.39124 6.49003 6.59986 15.59758 6.58098 15.68872l-.30445 1.45651zM25.74508 28.4966c3.50787.0 9.95184 1.09705 15.13357 8.13787.07794-2.75847-.54557-8.54431-6.33864-13.02534-.06028-.04981-3.64243-3.04151-11.28472-2.81621l-.62717.01698v-6.0434l-10.77386 9.93685 10.77264 10.03308v-5.89509l.46276-.10642c.04262-.01019 1.0534-.23832 2.65541-.23832z"/></g><g id="svg_4"/><g id="svg_5"/><g id="svg_6"/><g id="svg_7"/><g id="svg_8"/><g id="svg_9"/><g id="svg_10"/><g id="svg_11"/><g id="svg_12"/><g id="svg_13"/><g id="svg_14"/><g id="svg_15"/><g id="svg_16"/><g id="svg_17"/><g id="svg_18"/></g></svg>