<svg height="512pt" viewBox="-46 0 512 512" width="512pt" xmlns="http://www.w3.org/2000/svg"><path d="m404.925781 448.304688h-325.726562c-8.5625.0-15.5-6.941407-15.5-15.5V15.5c0-8.558594 6.9375-15.5 15.5-15.5h325.730469c8.558593.0 15.5 6.941406 15.5 15.5v417.304688c-.003907 8.558593-6.941407 15.5-15.503907 15.5zm0 0" fill="#feb133"/><path d="m404.925781.0h-162.863281v448.304688h162.867188c8.558593.0 15.5-6.941407 15.5-15.5V15.5c-.003907-8.558594-6.941407-15.5-15.503907-15.5zm0 0" fill="#fe9d00"/><path d="m341.230469 512H15.5c-8.558594.0-15.5-6.941406-15.5-15.5v-417.300781c0-8.5625 6.941406-15.5 15.5-15.5h235.085938c4.109374.0 8.050781 1.632812 10.957031 4.539062l90.644531 90.644531c2.910156 2.90625 4.542969 6.851563 4.542969 10.960938V496.5c0 8.5625-6.941407 15.5-15.5 15.5zm0 0" fill="#ffe461"/><path d="m352.191406 158.882812-90.648437-90.644531c-2.90625-2.90625-6.847657-4.542969-10.957031-4.542969h-72.21875V512h162.863281c8.558593.0 15.5-6.941406 15.5-15.5V169.84375c0-4.113281-1.632813-8.054688-4.539063-10.960938zm0 0" fill="#ffdc00"/><path d="m352.191406 158.882812-90.648437-90.644531c-4.429688-4.433593-11.097657-5.761719-16.890625-3.359375-5.792969 2.398438-9.566406 8.050782-9.566406 14.316406v90.648438c0 8.558594 6.9375 15.5 15.5 15.5h90.644531c6.269531.0 11.921875-3.777344 14.320312-9.570312 2.398438-5.789063 1.074219-12.457032-3.359375-16.890626zm0 0" fill="#f9ca06"/></svg>