<svg width="512" height="512" xmlns="http://www.w3.org/2000/svg"><g><title>background</title><path fill="none" id="canvas_background" d="M-1-1h802v602H-1z"/></g><g><title>Layer 1</title><g stroke="null" id="svg_84"><path stroke="null" id="svg_1" fill="#d3d2d2" d="m217.37615 232.41677c0-2.77552-2.15551-5.02628-4.81624-5.02628h-71.91987c-2.66014.0-4.81624 2.25013-4.81624 5.02628v170.88736h81.55236v-170.88736z"/><path stroke="null" id="svg_2" fill="#bdbcbc" d="m217.37615 232.41677c0-2.77552-2.15551-5.02628-4.81624-5.02628H196.9349v175.57822h20.44126v-170.55194z"/><g stroke="null" id="svg_3"><path stroke="null" id="svg_4" fill="#a7a6a6" d="m156.05118 285.69337c-2.66014.0-4.81624-2.25013-4.81624-5.02628v-32.16708c0-2.77552 2.15551-5.02628 4.81624-5.02628s4.81624 2.25013 4.81624 5.02628v32.16708c0 2.77552-2.15551 5.02628-4.81624 5.02628z"/><path stroke="null" id="svg_5" fill="#a7a6a6" d="m176.59997 285.69337c-2.66014.0-4.81624-2.25013-4.81624-5.02628v-32.16708c0-2.77552 2.15551-5.02628 4.81624-5.02628 2.66014.0 4.81624 2.25013 4.81624 5.02628v32.16708c0 2.77552-2.15611 5.02628-4.81624 5.02628z"/><path stroke="null" id="svg_6" fill="#a7a6a6" d="m197.14876 285.69337c-2.66014.0-4.81624-2.25013-4.81624-5.02628v-32.16708c0-2.77552 2.15551-5.02628 4.81624-5.02628 2.66014.0 4.81624 2.25013 4.81624 5.02628v32.16708c-6e-4 2.77552-2.15611 5.02628-4.81624 5.02628z"/><path stroke="null" id="svg_7" fill="#a7a6a6" d="m156.05118 323.22153c-2.66014.0-4.81624-2.25013-4.81624-5.02628v-16.08323c0-2.77552 2.15551-5.02628 4.81624-5.02628s4.81624 2.25013 4.81624 5.02628v16.08323c0 2.77552-2.15551 5.02628-4.81624 5.02628z"/><path stroke="null" id="svg_8" fill="#a7a6a6" d="m176.59997 323.22153c-2.66014.0-4.81624-2.25013-4.81624-5.02628v-16.08323c0-2.77552 2.15551-5.02628 4.81624-5.02628 2.66014.0 4.81624 2.25013 4.81624 5.02628v16.08323c0 2.77552-2.15611 5.02628-4.81624 5.02628z"/><path stroke="null" id="svg_9" fill="#a7a6a6" d="m197.14876 323.22153c-2.66014.0-4.81624-2.25013-4.81624-5.02628v-16.08323c0-2.77552 2.15551-5.02628 4.81624-5.02628 2.66014.0 4.81624 2.25013 4.81624 5.02628v16.08323c-6e-4 2.77552-2.15611 5.02628-4.81624 5.02628z"/></g><path stroke="null" id="svg_10" fill="#d3d2d2" d="m397.17581 205.61077c0-2.77552-2.15551-5.02628-4.81624-5.02628H320.4397c-2.66014.0-4.81624 2.25013-4.81624 5.02628v197.69337h81.55236v-197.69337z"/><path stroke="null" id="svg_11" fill="#bdbcbc" d="m335.63758 200.58448h-15.19727c-2.66014.0-4.81624 2.25013-4.81624 5.02628v197.35795h20.01352v-202.38423z"/><g stroke="null" id="svg_12"><path stroke="null" id="svg_13" fill="#a7a6a6" d="m335.85144 323.22153c-2.66014.0-4.81624-2.25013-4.81624-5.02628v-16.08323c0-2.77552 2.15551-5.02628 4.81624-5.02628 2.66014.0 4.81624 2.25013 4.81624 5.02628v16.08323c-6e-4 2.77552-2.15611 5.02628-4.81624 5.02628z"/><path stroke="null" id="svg_14" fill="#a7a6a6" d="m356.39963 323.22153c-2.66014.0-4.81624-2.25013-4.81624-5.02628v-16.08323c0-2.77552 2.15551-5.02628 4.81624-5.02628s4.81624 2.25013 4.81624 5.02628v16.08323c0 2.77552-2.15551 5.02628-4.81624 5.02628z"/><path stroke="null" id="svg_15" fill="#a7a6a6" d="m376.94842 323.22153c-2.66014.0-4.81624-2.25013-4.81624-5.02628v-16.08323c0-2.77552 2.15551-5.02628 4.81624-5.02628s4.81624 2.25013 4.81624 5.02628v16.08323c-6e-4 2.77552-2.15611 5.02628-4.81624 5.02628z"/><path stroke="null" id="svg_16" fill="#a7a6a6" d="m335.85144 232.08135c-2.66014.0-4.81624-2.25013-4.81624-5.02628v-5.36108c0-2.77552 2.15551-5.02628 4.81624-5.02628 2.66014.0 4.81624 2.25013 4.81624 5.02628v5.36108c-6e-4 2.77615-2.15611 5.02628-4.81624 5.02628z"/><path stroke="null" id="svg_17" fill="#a7a6a6" d="m356.39963 232.08135c-2.66014.0-4.81624-2.25013-4.81624-5.02628v-5.36108c0-2.77552 2.15551-5.02628 4.81624-5.02628s4.81624 2.25013 4.81624 5.02628v5.36108c0 2.77615-2.15551 5.02628-4.81624 5.02628z"/><path stroke="null" id="svg_18" fill="#a7a6a6" d="m376.94842 232.08135c-2.66014.0-4.81624-2.25013-4.81624-5.02628v-5.36108c0-2.77552 2.15551-5.02628 4.81624-5.02628s4.81624 2.25013 4.81624 5.02628v5.36108c-6e-4 2.77615-2.15611 5.02628-4.81624 5.02628z"/><path stroke="null" id="svg_19" fill="#a7a6a6" d="m335.85144 258.88736c-2.66014.0-4.81624-2.25013-4.81624-5.02628v-5.36108c0-2.77552 2.15551-5.02628 4.81624-5.02628 2.66014.0 4.81624 2.25013 4.81624 5.02628v5.36108c-6e-4 2.77615-2.15611 5.02628-4.81624 5.02628z"/><path stroke="null" id="svg_20" fill="#a7a6a6" d="m356.39963 258.88736c-2.66014.0-4.81624-2.25013-4.81624-5.02628v-5.36108c0-2.77552 2.15551-5.02628 4.81624-5.02628s4.81624 2.25013 4.81624 5.02628v5.36108c0 2.77615-2.15551 5.02628-4.81624 5.02628z"/><path stroke="null" id="svg_21" fill="#a7a6a6" d="m376.94842 258.88736c-2.66014.0-4.81624-2.25013-4.81624-5.02628v-5.36108c0-2.77552 2.15551-5.02628 4.81624-5.02628s4.81624 2.25013 4.81624 5.02628v5.36108c-6e-4 2.77615-2.15611 5.02628-4.81624 5.02628z"/><path stroke="null" id="svg_22" fill="#a7a6a6" d="m335.85144 285.69337c-2.66014.0-4.81624-2.25013-4.81624-5.02628v-5.36108c0-2.77552 2.15551-5.02628 4.81624-5.02628 2.66014.0 4.81624 2.25013 4.81624 5.02628v5.36108c-6e-4 2.77552-2.15611 5.02628-4.81624 5.02628z"/><path stroke="null" id="svg_23" fill="#a7a6a6" d="m356.39963 285.69337c-2.66014.0-4.81624-2.25013-4.81624-5.02628v-5.36108c0-2.77552 2.15551-5.02628 4.81624-5.02628s4.81624 2.25013 4.81624 5.02628v5.36108c0 2.77552-2.15551 5.02628-4.81624 5.02628z"/><path stroke="null" id="svg_24" fill="#a7a6a6" d="m376.94842 285.69337c-2.66014.0-4.81624-2.25013-4.81624-5.02628v-5.36108c0-2.77552 2.15551-5.02628 4.81624-5.02628s4.81624 2.25013 4.81624 5.02628v5.36108c-6e-4 2.77552-2.15611 5.02628-4.81624 5.02628z"/></g><path stroke="null" id="svg_25" fill="#7b7979" d="m266.4998 130.21903c-2.66014.0-4.81624-2.25013-4.81624-5.02628V93.02629c0-2.77615 2.15611-5.02628 4.81624-5.02628 2.66014.0 4.81624 2.25013 4.81624 5.02628v32.16708c0 2.77552-2.15611 5.02566-4.81624 5.02566z"/><path stroke="null" id="svg_26" fill="#6ddae1" d="m279.34272 120.16709h-25.68584c-2.66014.0-4.81624 2.25013-4.81624 5.02628v26.80601c0 2.77552 2.15551 5.02628 4.81624 5.02628h25.68584c2.66014.0 4.81624-2.25013 4.81624-5.02628v-26.80601c0-2.77615-2.15611-5.02628-4.81624-5.02628z"/><path stroke="null" id="svg_27" fill="#4fc4d4" d="m248.84064 135.69233v16.30642c0 2.77552 2.15551 5.02628 4.81624 5.02628h25.68584c2.66014.0 4.81624-2.25013 4.81624-5.02628v-16.30642h-35.31833z"/><path stroke="null" id="svg_28" fill="#ff8c78" d="m305.02856 141.61139h-77.05751c-2.66014.0-4.81624 2.25013-4.81624 5.02628v32.16708c0 2.77552 2.15551 5.02628 4.81624 5.02628h77.05691c2.66014.0 4.81624-2.25013 4.81624-5.02628v-32.16708c0-2.77552-2.15551-5.02628-4.81564-5.02628z"/><path stroke="null" id="svg_29" fill="#df7a6e" d="m223.1554 157.58302v21.22174c0 2.77552 2.15551 5.02628 4.81624 5.02628h77.05691c2.66014.0 4.81624-2.25013 4.81624-5.02628v-21.22174h-86.6894z"/><path stroke="null" id="svg_30" fill="#6ddae1" d="m325.25595 168.08261c0-2.77552-2.15551-5.02628-4.81624-5.02628h-107.8798c-2.66014.0-4.81624 2.25013-4.81624 5.02628v235.22152h117.51229V168.08261z"/><path stroke="null" id="svg_31" fill="#4fc4d4" d="M207.74366 366.66687h117.51229v36.63475H207.74366z"/><g stroke="null" id="svg_32"><path stroke="null" id="svg_33" fill="#1ea9bd" d="m266.4998 323.22153c-2.66014.0-4.81624-2.25013-4.81624-5.02628v-5.36108c0-2.77552 2.15551-5.02628 4.81624-5.02628 2.66014.0 4.81624 2.25013 4.81624 5.02628v5.36108c0 2.77552-2.15611 5.02628-4.81624 5.02628z"/><path stroke="null" id="svg_34" fill="#1ea9bd" d="m248.51983 323.22153c-2.66014.0-4.81624-2.25013-4.81624-5.02628v-5.36108c0-2.77552 2.15551-5.02628 4.81624-5.02628s4.81624 2.25013 4.81624 5.02628v5.36108c0 2.77552-2.15611 5.02628-4.81624 5.02628z"/><path stroke="null" id="svg_35" fill="#1ea9bd" d="m284.47977 323.22153c-2.66014.0-4.81624-2.25013-4.81624-5.02628v-5.36108c0-2.77552 2.15551-5.02628 4.81624-5.02628s4.81624 2.25013 4.81624 5.02628v5.36108c0 2.77552-2.15611 5.02628-4.81624 5.02628z"/><path stroke="null" id="svg_36" fill="#1ea9bd" d="m227.97104 323.22153c-2.66014.0-4.81624-2.25013-4.81624-5.02628v-5.36108c0-2.77552 2.15551-5.02628 4.81624-5.02628s4.81624 2.25013 4.81624 5.02628v5.36108c0 2.77552-2.15551 5.02628-4.81624 5.02628z"/><path stroke="null" id="svg_37" fill="#1ea9bd" d="m305.02856 323.22153c-2.66014.0-4.81624-2.25013-4.81624-5.02628v-5.36108c0-2.77552 2.15551-5.02628 4.81624-5.02628 2.66014.0 4.81624 2.25013 4.81624 5.02628v5.36108c-6e-4 2.77552-2.15611 5.02628-4.81624 5.02628z"/><path stroke="null" id="svg_38" fill="#1ea9bd" d="m266.5004 207.84397c-2.66014.0-4.81624-2.25013-4.81624-5.02628v-16.75344c0-2.77552 2.15551-5.02628 4.81624-5.02628 2.66014.0 4.81624 2.25013 4.81624 5.02628v16.75344c0 2.77615-2.15551 5.02628-4.81624 5.02628z"/><path stroke="null" id="svg_39" fill="#1ea9bd" d="m248.52044 207.84397c-2.66014.0-4.81624-2.25013-4.81624-5.02628v-16.75344c0-2.77552 2.15551-5.02628 4.81624-5.02628 2.66014.0 4.81624 2.25013 4.81624 5.02628v16.75344c0 2.77615-2.15611 5.02628-4.81624 5.02628z"/><path stroke="null" id="svg_40" fill="#1ea9bd" d="m284.48037 207.84397c-2.66014.0-4.81624-2.25013-4.81624-5.02628v-16.75344c0-2.77552 2.15551-5.02628 4.81624-5.02628 2.66014.0 4.81624 2.25013 4.81624 5.02628v16.75344c0 2.77615-2.15551 5.02628-4.81624 5.02628z"/><path stroke="null" id="svg_41" fill="#1ea9bd" d="m227.97164 207.84397c-2.66014.0-4.81624-2.25013-4.81624-5.02628v-16.75344c0-2.77552 2.15551-5.02628 4.81624-5.02628 2.66014.0 4.81624 2.25013 4.81624 5.02628v16.75344c0 2.77615-2.15551 5.02628-4.81624 5.02628z"/><path stroke="null" id="svg_42" fill="#1ea9bd" d="m305.02916 207.84397c-2.66014.0-4.81624-2.25013-4.81624-5.02628v-16.75344c0-2.77552 2.15551-5.02628 4.81624-5.02628s4.81624 2.25013 4.81624 5.02628v16.75344c-6e-4 2.77615-2.15611 5.02628-4.81624 5.02628z"/><path stroke="null" id="svg_43" fill="#1ea9bd" d="m266.4998 232.08135c-2.66014.0-4.81624-2.25013-4.81624-5.02628v-5.36108c0-2.77552 2.15551-5.02628 4.81624-5.02628 2.66014.0 4.81624 2.25013 4.81624 5.02628v5.36108c0 2.77615-2.15611 5.02628-4.81624 5.02628z"/><path stroke="null" id="svg_44" fill="#1ea9bd" d="m248.51983 232.08135c-2.66014.0-4.81624-2.25013-4.81624-5.02628v-5.36108c0-2.77552 2.15551-5.02628 4.81624-5.02628s4.81624 2.25013 4.81624 5.02628v5.36108c0 2.77615-2.15611 5.02628-4.81624 5.02628z"/><path stroke="null" id="svg_45" fill="#1ea9bd" d="m284.47977 232.08135c-2.66014.0-4.81624-2.25013-4.81624-5.02628v-5.36108c0-2.77552 2.15551-5.02628 4.81624-5.02628s4.81624 2.25013 4.81624 5.02628v5.36108c0 2.77615-2.15611 5.02628-4.81624 5.02628z"/><path stroke="null" id="svg_46" fill="#1ea9bd" d="m227.97104 232.08135c-2.66014.0-4.81624-2.25013-4.81624-5.02628v-5.36108c0-2.77552 2.15551-5.02628 4.81624-5.02628s4.81624 2.25013 4.81624 5.02628v5.36108c0 2.77615-2.15551 5.02628-4.81624 5.02628z"/><path stroke="null" id="svg_47" fill="#1ea9bd" d="m305.02856 232.08135c-2.66014.0-4.81624-2.25013-4.81624-5.02628v-5.36108c0-2.77552 2.15551-5.02628 4.81624-5.02628 2.66014.0 4.81624 2.25013 4.81624 5.02628v5.36108c-6e-4 2.77615-2.15611 5.02628-4.81624 5.02628z"/><path stroke="null" id="svg_48" fill="#1ea9bd" d="m266.501 296.41301c-2.66014.0-4.81624-2.25013-4.81624-5.02628V248.5c0-2.77552 2.15551-5.02628 4.81624-5.02628 2.66014.0 4.81624 2.25013 4.81624 5.02628v42.88673c0 2.77552-2.15551 5.02628-4.81624 5.02628z"/><path stroke="null" id="svg_49" fill="#1ea9bd" d="m248.52104 296.41301c-2.66014.0-4.81624-2.25013-4.81624-5.02628V248.5c0-2.77552 2.15551-5.02628 4.81624-5.02628s4.81624 2.25013 4.81624 5.02628v42.88673c0 2.77552-2.15551 5.02628-4.81624 5.02628z"/><path stroke="null" id="svg_50" fill="#1ea9bd" d="m284.48097 296.41301c-2.66014.0-4.81624-2.25013-4.81624-5.02628V248.5c0-2.77552 2.15551-5.02628 4.81624-5.02628s4.81624 2.25013 4.81624 5.02628v42.88673c0 2.77552-2.15551 5.02628-4.81624 5.02628z"/><path stroke="null" id="svg_51" fill="#1ea9bd" d="m227.97285 296.41301c-2.66014.0-4.81624-2.25013-4.81624-5.02628V248.5c0-2.77552 2.15551-5.02628 4.81624-5.02628s4.81624 2.25013 4.81624 5.02628v42.88673c-6e-4 2.77552-2.15611 5.02628-4.81624 5.02628z"/><path stroke="null" id="svg_52" fill="#1ea9bd" d="m305.02976 296.41301c-2.66014.0-4.81624-2.25013-4.81624-5.02628V248.5c0-2.77552 2.15551-5.02628 4.81624-5.02628s4.81624 2.25013 4.81624 5.02628v42.88673c-6e-4 2.77552-2.15611 5.02628-4.81624 5.02628z"/><path stroke="null" id="svg_53" fill="#1ea9bd" d="m271.31725 339.64018c0-2.77552-2.15551-5.02628-4.81624-5.02628-2.66014.0-4.81624 2.25013-4.81624 5.02628v63.66395h9.63189v-63.66395h6e-4z"/><path stroke="null" id="svg_54" fill="#1ea9bd" d="m253.33728 339.64018c0-2.77552-2.15551-5.02628-4.81624-5.02628s-4.81624 2.25013-4.81624 5.02628v63.66395h9.63189v-63.66395h6e-4z"/><path stroke="null" id="svg_55" fill="#1ea9bd" d="m289.29721 339.64018c0-2.77552-2.15551-5.02628-4.81624-5.02628s-4.81624 2.25013-4.81624 5.02628v63.66395h9.63189v-63.66395h6e-4z"/></g><path stroke="null" id="svg_56" fill="#df7a6e" d="m171.46292 403.97372c-2.66014.0-4.81624-2.25013-4.81624-5.02628v-21.44493c0-2.77552 2.15551-5.02628 4.81624-5.02628 2.66014.0 4.81624 2.25013 4.81624 5.02628v21.44493c-6e-4 2.77615-2.15611 5.02628-4.81624 5.02628z"/><path stroke="null" id="svg_57" fill="#c4df64" d="m186.9029 348.04323c-4.26295-12.64439-9.31349-18.79104-15.44058-18.79104s-11.17703 6.14665-15.44058 18.79104c-2.77428 8.22688-4.78741 18.22051-4.78741 23.7634.0 11.64001 9.07439 21.10951 20.22739 21.10951s20.22739-9.47013 20.22739-21.10951c.0012-5.54227-2.01193-15.53653-4.78621-23.7634z"/><path stroke="null" id="svg_58" fill="#96ca62" d="m178.84739 385.20964c-11.1536.0-20.22739-9.47013-20.22739-21.10951.0-5.54289 2.01313-15.53653 4.78741-23.7634 1.39075-4.12472 2.8656-7.55353 4.43417-10.30711-4.53509 2.01001-8.42618 7.9529-11.81863 18.01362-2.77428 8.22688-4.78741 18.22051-4.78741 23.7634.0 11.64001 9.07439 21.10951 20.22739 21.10951 7.46797.0 13.99997-4.24949 17.50357-10.54974-2.97914 1.805-6.43408 2.84323-10.1191 2.84323z"/><path stroke="null" id="svg_59" fill="#df7a6e" d="m212.5599 403.97372c-2.66014.0-4.81624-2.25013-4.81624-5.02628v-21.44493c0-2.77552 2.15551-5.02628 4.81624-5.02628 2.66014.0 4.81624 2.25013 4.81624 5.02628v21.44493c0 2.77615-2.15611 5.02628-4.81624 5.02628z"/><path stroke="null" id="svg_60" fill="#c4df64" d="m227.99988 348.04323c-4.26295-12.64439-9.31349-18.79104-15.44058-18.79104-6.12649.0-11.17703 6.14665-15.44058 18.79104-2.77428 8.22688-4.78741 18.22051-4.78741 23.7634.0 11.64001 9.07439 21.10951 20.22739 21.10951s20.22739-9.47013 20.22739-21.10951c.0012-5.54227-2.01193-15.53653-4.78621-23.7634z"/><path stroke="null" id="svg_61" fill="#96ca62" d="m218.01835 387.22028c-11.1536.0-20.22739-9.47013-20.22739-21.10951.0-5.54289 2.01313-15.53653 4.78741-23.7634 1.65087-4.89713 3.42129-8.81559 5.32508-11.78358-4.09534 2.41502-7.6524 8.1924-10.78353 17.48008-2.77428 8.22688-4.78741 18.22051-4.78741 23.7634.0 11.64001 9.07439 21.10951 20.22739 21.10951 6.96875.0 13.12527-3.69714 16.76464-9.31025-3.22965 2.28086-7.12134 3.61376-11.30619 3.61376z"/><path stroke="null" id="svg_62" fill="#df7a6e" d="m320.4397 403.97372c-2.66014.0-4.81624-2.25013-4.81624-5.02628v-21.44493c0-2.77552 2.15551-5.02628 4.81624-5.02628 2.66014.0 4.81624 2.25013 4.81624 5.02628v21.44493c0 2.77615-2.15611 5.02628-4.81624 5.02628z"/><path stroke="null" id="svg_63" fill="#c4df64" d="m335.88028 348.04323c-4.26295-12.64439-9.31349-18.79104-15.44058-18.79104-6.12649.0-11.17703 6.14665-15.44058 18.79104-2.77428 8.22688-4.78741 18.22051-4.78741 23.7634.0 11.64001 9.07439 21.10951 20.22739 21.10951 11.1536.0 20.22739-9.47013 20.22739-21.10951 6e-4-5.54227-2.01253-15.53653-4.78621-23.7634z"/><path stroke="null" id="svg_64" fill="#96ca62" d="m325.89815 387.22028c-11.1536.0-20.22739-9.47013-20.22739-21.10951.0-5.54289 2.01313-15.53653 4.78741-23.7634 1.65087-4.89713 3.42129-8.81559 5.32508-11.78358-4.09534 2.41502-7.6524 8.1924-10.78353 17.48008-2.77428 8.22688-4.78741 18.22051-4.78741 23.7634.0 11.64001 9.07439 21.10951 20.22739 21.10951 6.96875.0 13.12527-3.69714 16.76464-9.31025-3.22965 2.28086-7.12134 3.61376-11.30619 3.61376z"/><path stroke="null" id="svg_65" fill="#df7a6e" d="m361.53668 403.97372c-2.66014.0-4.81624-2.25013-4.81624-5.02628v-21.44493c0-2.77552 2.15551-5.02628 4.81624-5.02628s4.81624 2.25013 4.81624 5.02628v21.44493c0 2.77615-2.15551 5.02628-4.81624 5.02628z"/><path stroke="null" id="svg_66" fill="#c4df64" d="m376.97726 348.04323c-4.26295-12.64439-9.31349-18.79104-15.44058-18.79104s-11.17703 6.14665-15.44058 18.79104c-2.77428 8.22688-4.78741 18.22051-4.78741 23.7634.0 11.64001 9.07439 21.10951 20.22739 21.10951 11.1536.0 20.22739-9.47013 20.22739-21.10951 6e-4-5.54227-2.01253-15.53653-4.78621-23.7634z"/><path stroke="null" id="svg_67" fill="#96ca62" d="m366.99513 387.22028c-11.1536.0-20.22739-9.47013-20.22739-21.10951.0-5.54289 2.01313-15.53653 4.78741-23.7634 1.65087-4.89713 3.42129-8.81559 5.32508-11.78358-4.09534 2.41502-7.6524 8.1924-10.78353 17.48008-2.77428 8.22688-4.78741 18.22051-4.78741 23.7634.0 11.64001 9.07439 21.10951 20.22739 21.10951 6.96875.0 13.12527-3.69714 16.76464-9.31025-3.22965 2.28086-7.12134 3.61376-11.30619 3.61376z"/><path stroke="null" id="svg_68" fill="#7b7979" d="m412.90836 409H120.09125c-2.66014.0-4.81624-2.25013-4.81624-5.02628.0-2.77552 2.15551-5.02628 4.81624-5.02628h292.81651c2.66014.0 4.81624 2.25013 4.81624 5.02628.0 2.77615-2.15551 5.02628-4.81564 5.02628z"/><g stroke="null" id="svg_69"/><g stroke="null" id="svg_70"/><g stroke="null" id="svg_71"/><g stroke="null" id="svg_72"/><g stroke="null" id="svg_73"/><g stroke="null" id="svg_74"/><g stroke="null" id="svg_75"/><g stroke="null" id="svg_76"/><g stroke="null" id="svg_77"/><g stroke="null" id="svg_78"/><g stroke="null" id="svg_79"/><g stroke="null" id="svg_80"/><g stroke="null" id="svg_81"/><g stroke="null" id="svg_82"/><g stroke="null" id="svg_83"/></g></g></svg>