<svg width="512" height="512" xmlns="http://www.w3.org/2000/svg">

 <g>
  <title>background</title>
  <rect fill="none" id="canvas_background" height="602" width="802" y="-1" x="-1"/>
 </g>
 <g>
  <title>Layer 1</title>
  <g stroke="null" id="svg_32">
   <path stroke="null" id="svg_8" fill="#B3FFFF" d="m375.00001,345.57708c0,10.06479 -4.55901,19.53386 -12.8351,26.65355l-65.46849,56.32067c-0.43423,0.53409 -0.92242,1.05296 -1.48135,1.5338c-7.8056,6.71493 -17.83719,10.34705 -28.06424,10.92679c-0.9401,0.06087 -1.89789,0.10651 -2.85568,0.11412l-0.36348,0c-11.69955,0 -22.70663,-3.92199 -30.97387,-11.04167c-0.55893,-0.48083 -1.04623,-0.9921 -1.49019,-1.5338l-65.46849,-56.32828c-8.27521,-7.11131 -12.8351,-16.58115 -12.8351,-26.64594s4.55901,-19.53386 12.8351,-26.65355c8.27521,-7.11892 19.27432,-11.0333 30.97387,-11.0333c8.46181,0 16.5513,2.05267 23.51407,5.88336l0,-191.21198c0,-20.77779 19.65549,-37.68685 43.80809,-37.68685c24.16144,0 43.80809,16.90906 43.80809,37.68685l0,190.97536c6.86549,-3.67016 14.80375,-5.64675 23.0878,-5.64675c11.69955,0 22.70663,3.91438 30.97387,11.0333c8.27609,7.12044 12.8351,16.58952 12.8351,26.65431z"/>
   <path stroke="null" id="svg_9" fill="#51FAFF" d="m375.00001,345.57708c0,10.06479 -4.55901,19.53386 -12.8351,26.65355l-65.46849,56.32067c-0.43423,0.53409 -0.92242,1.05296 -1.48135,1.5338c-7.8056,6.71493 -17.83719,10.34705 -28.06424,10.92679c-0.9401,0.06087 -1.89789,0.10651 -2.85568,0.11412l0,-356.252c24.16144,0 43.80809,16.90906 43.80809,37.68685l0,190.97536c6.86549,-3.67016 14.80375,-5.64675 23.0878,-5.64675c11.69955,0 22.70663,3.91438 30.97387,11.0333c8.27609,7.12044 12.8351,16.58952 12.8351,26.65431z"/>
  </g>
 </g>
</svg>