<svg width="512" height="512" xmlns="http://www.w3.org/2000/svg"><g><title>background</title><path height="514" width="514" y="-1" x="-1" d="m-1-1h570.88852v570.88852H-1V-1z" id="canvas_background" fill="none"/></g><g><title>Layer 1</title><path d="m338.25 138.0316c-36.01628.0-59.13453 25.57382-71.25 48.6016-12.11547-23.02778-35.23372-48.6016-71.25-48.6016-45.69678.0-80.75 38.01132-80.75 88.41608.0 54.5512 43.82884 91.99646 109.26069 148.66886 11.59356 10.04233 23.91803 20.11725 36.87722 31.63567l5.86209 5.21578 5.86209-5.21578c12.95919-11.51842 25.28366-21.59333 36.87722-31.63567 65.43184-56.67179 109.26069-94.11766 109.26069-148.66886.0-50.40476-35.05322-88.41608-80.75-88.41608z" fill="#ffafcc" id="svg_2" stroke="null"/><path d="m309.73931 375.11715c65.43184-56.6724 109.26069-94.11826 109.26069-148.66946.0-50.40476-35.05322-88.41669-80.75-88.41669-36.01628.0-59.13453 25.57382-71.25 48.6016v225.33479l5.86209-5.21578c12.95919-11.51721 25.28366-21.59273 36.87722-31.63446z" fill="#ffafcc" id="svg_3" stroke="null"/></g></svg>