<svg width="512" height="512" xmlns="http://www.w3.org/2000/svg">

 <g>
  <title>background</title>
  <rect fill="none" id="canvas_background" height="570.88852" width="570.88852" y="-1" x="-1"/>
 </g>
 <g>
  <title>Layer 1</title>
  <path stroke="null" id="svg_2" fill="#FFAFCC" d="m338.25,138.0316c-36.01628,0 -59.13453,25.57382 -71.25,48.6016c-12.11547,-23.02778 -35.23372,-48.6016 -71.25,-48.6016c-45.69678,0 -80.75,38.01132 -80.75,88.41608c0,54.5512 43.82884,91.99646 109.26069,148.66886c11.59356,10.04233 23.91803,20.11725 36.87722,31.63567l5.86209,5.21578l5.86209,-5.21578c12.95919,-11.51842 25.28366,-21.59333 36.87722,-31.63567c65.43184,-56.67179 109.26069,-94.11766 109.26069,-148.66886c0,-50.40476 -35.05322,-88.41608 -80.75,-88.41608z"/>
  <path stroke="null" id="svg_3" fill="#FFAFCC" d="m309.73931,375.11715c65.43184,-56.6724 109.26069,-94.11826 109.26069,-148.66946c0,-50.40476 -35.05322,-88.41669 -80.75,-88.41669c-36.01628,0 -59.13453,25.57382 -71.25,48.6016l0,225.33479l5.86209,-5.21578c12.95919,-11.51721 25.28366,-21.59273 36.87722,-31.63446z"/>
  <path stroke="null" id="svg_4" fill="#f0f7ff" d="m293.71875,261.01199l-26.71875,27.15611l-8.90625,9.05204l-17.8125,-18.10408l-12.59403,12.80019l30.40653,30.90426l8.90625,-9.05204l39.31278,-39.9563l-12.59403,-12.80019z"/>
  <path stroke="null" id="svg_5" fill="#dfe7f4" d="m293.71875,261.01199l-26.71875,27.15611l0,25.60037l39.31278,-39.9563l-12.59403,-12.80019z"/>
 </g>
</svg>