<svg width="497.002" height="497.002" xmlns="http://www.w3.org/2000/svg"><g><title>background</title><path fill="none" id="canvas_background" d="M-1-1h802v602H-1z"/></g><g><title>Layer 1</title><g stroke="null" id="svg_1"><path stroke="null" id="svg_2" fill="#f4dbb3" d="m203.89236 358.15828 9.22078-8.76351c2.71768-2.5829 7.1243-2.5829 9.84256.0l6.10721 5.80434c2.71768 2.5829 7.1243 2.5829 9.84256.0l6.83611-6.4971c2.71768-2.5829 2.71768-6.77099.0-9.35445l-30.46094-28.95033-31.94146 22.14669-20.36862 27.56869 30.46094 28.95033c2.71768 2.5829 7.1243 2.5829 9.84256.0l6.7255-6.39197c2.71768-2.5829 2.71768-6.77099.0-9.35445l-6.10721-5.80434c-2.71768-2.5829-2.71768-6.77099.0-9.3539z"/><path stroke="null" id="svg_3" fill="#eac89f" d="m245.73925 348.70423-6.83495 6.49599c-2.71884 2.58401-7.12605 2.58401-9.83907.0l-6.10721-5.80434c-2.71884-2.58401-7.12605-2.58401-9.84489.0l-9.22194 8.76461c-2.71884 2.57848-2.71884 6.76712.0 9.35113l6.10721 5.80434c2.71884 2.58401 2.71884 6.77265.0 9.35667l-6.72433 6.39086c-2.71884 2.58401-7.12605 2.58401-9.84489.0l-6.44488-6.12527c2.13665.33199 4.39556-.28219 6.04317-1.84809l8.23804-6.71732c2.71884-2.58401 2.71884-6.77265.0-9.35667l-6.10721-5.80434c-2.71884-2.58401-2.71884-6.77265.0-9.35667l9.22194-8.75908c2.71884-2.58401 7.12605-2.58401 9.84489.0l6.10721 5.80434c2.71302 2.58401 7.12022 2.58401 9.83907.0l6.83495-6.50153c2.71884-2.57848 2.71884-6.76712.0-9.35113l8.7329 8.29982c2.71884 2.58401 2.71884 6.77265.0 9.35667z"/><path stroke="null" id="svg_4" fill="#ffd15b" d="m147.83063 365.33043-11.90585-11.31542c-2.6647-2.53255-2.6647-6.6393.0-9.17186l177.41178-168.61365 21.55629 20.48728-177.41178 168.61365c-2.66528 2.53255-6.98574 2.53255-9.65044.0z"/><path stroke="null" id="svg_5" fill="#ffc344" d="m326.15937 188.4164-177.41178 168.61365c-2.6647 2.53255-6.98574 2.53255-9.65044.0l8.73348 8.30038c2.6647 2.53255 6.98574 2.53255 9.65044.0l177.41178-168.61365-8.73348-8.30038z"/><path stroke="null" id="svg_6" fill="#f4dbb3" d="m295.14476 233.63051-20.64865-19.62465c-2.43997-2.31897-2.43997-6.07934.0-8.39831l34.87571-33.14617 29.48518 28.02297-34.87571 33.14617c-2.43997 2.31952-6.39598 2.31952-8.83653.0z"/><g stroke="null" id="svg_7"><path stroke="null" id="svg_8" fill="#eac89f" d="m338.85526 200.486-34.87338 33.14396c-2.43939 2.31842-6.39831 2.31842-8.8377.0l-8.7329-8.29982c2.43939 2.31842 6.39831 2.31842 8.8377.0l34.87338-33.14396 8.7329 8.29982z"/></g><path stroke="null" id="svg_9" fill="#ffd15b" d="m391.44478 127.78509c-13.7223-15.07248-37.73777-15.68666-52.30425-1.84809-.04658.0498-.09315.09406-.13973.13833-5.06508 4.86923-12.41818 6.70072-19.36957 4.8969-12.2901-3.19266-26.02404-.0332-35.44975 9.48393-12.54627 12.66-12.9014 32.6515-.78014 45.68222 7.67913 8.25002 18.48464 12.05134 29.04563 11.42609-.6637 10.04278 3.34179 20.31243 12.03394 27.61074 13.50106 11.33756 34.13982 11.21583 47.50116-.26559 9.9264-8.52668 13.58839-20.98748 10.98599-32.41357-1.47295-6.47386.62877-13.18565 5.72878-17.70075 1.00719-.88531 1.96781-1.84256 2.88768-2.86067 11.37024-12.6434 11.31784-31.57252-.13973-44.14952zm-54.13816 59.06153c-7.50447.0-13.58257-5.78221-13.58257-12.90899.0-7.13231 6.0781-12.91452 13.58257-12.91452 2.15412.0 4.19761.47586 6.00824 1.3335 1.33904.62525 3.99792.40835 5.04238 1.40156s.47391 3.19654 1.13469 4.46918c.89658 1.72083 1.39726 3.65745 1.39726 5.71028.0 7.12678-6.0781 12.90899-13.58257 12.90899z"/><g stroke="null" id="svg_10" fill="#ffc344"><path stroke="null" id="svg_11" d="m391.44595 127.78454c-1.98237-2.17732-4.18481-4.04257-6.53745-5.61677 9.20739 12.47187 8.53263 29.69123-2.05922 41.46757-.91637 1.01922-1.8799 1.97259-2.88419 2.86012-5.10467 4.51289-7.20639 11.22357-5.73111 17.69909 2.60357 11.42886-1.05668 23.88633-10.98541 32.41579-12.38442 10.63871-31.01577 11.51296-44.42426 2.56243 1.59113 2.15463 3.47628 4.1726 5.65659 6.00354 13.49932 11.33313 34.13807 11.21306 47.50057-.26559 9.92931-8.52945 13.58898-20.98748 10.98541-32.41579-1.47528-6.47552.62702-13.18676 5.73111-17.69909 1.00428-.88753 1.96781-1.84145 2.88419-2.86012 11.37489-12.64561 11.319-31.57142-.13623-44.15118z"/><path stroke="null" id="svg_12" d="m324.38368 177.91713c-.42733-1.25438-.66137-2.59176-.66137-3.9817.0-7.1301 6.08159-12.91065 13.58432-12.91065 1.46247.0 2.86963.22244 4.18946.62857-1.76637-5.1813-6.88269-8.92895-12.92295-8.92895-7.50214.0-13.58432 5.78-13.58432 12.91065.0 5.74071 3.9432 10.6033 9.39485 12.28208z"/></g><g stroke="null" id="svg_13"><path stroke="null" id="svg_14" fill="#c3aff0" d="m371.88891 146.93555-22.39698 21.29181c-1.32158-2.54528-3.49898-4.62023-6.17707-5.87074l22.39698-21.28628c1.70583-1.62123 4.47125-1.62123 6.17707.0s1.70583 4.24398.0 5.86521z"/></g><g stroke="null" id="svg_15"><g stroke="null" id="svg_16"><path stroke="null" id="svg_17" fill="#dbeaff" d="m175.727 234.27292c-.51349.0-1.03514-.08687-1.54398-.26947l-12.75702-4.58648c-2.25542-.81062-3.39244-3.20594-2.53895-5.34951.85291-2.14357 3.37206-3.22476 5.62865-2.41303l12.75702 4.58648c2.25542.81062 3.39244 3.20594 2.53895 5.34951-.66021 1.66052-2.3212 2.6825-4.08467 2.6825z"/></g><g stroke="null" id="svg_18"><path stroke="null" id="svg_19" fill="#dbeaff" d="m193.58579 211.25972c-1.13469.0-2.26881-.41776-3.12463-1.25051l-9.92174-9.65657c-1.68487-1.63949-1.65168-4.26722.07336-5.86853s4.48929-1.56977 6.17474.06972l9.92174 9.65657c1.68487 1.63949 1.65168 4.26722-.07336 5.86853-.84884.78793-1.94977 1.18079-3.05011 1.18079z"/></g><g stroke="null" id="svg_20"><path stroke="null" id="svg_21" fill="#dbeaff" d="m218.67716 197.05486c-1.93521.0-3.70333-1.23169-4.21974-3.09307l-3.531-12.73469c-.6148-2.21605.77781-4.48633 3.10949-5.07064 2.3311-.58541 4.72042.73868 5.33522 2.95529l3.531 12.73414c.6148 2.21605-.77781 4.48633-3.10949 5.07064-.3726.09351-.74695.13833-1.11548.13833z"/></g></g></g></g></svg>