<svg width="128" height="128" xmlns="http://www.w3.org/2000/svg" style="vector-effect:non-scaling-stroke" stroke="null"><g stroke="null"><title stroke="null">background</title><path stroke="null" d="M-1-1h9.99999v9.99999H-1z" id="canvas_background" fill="none"/></g><g stroke="null"><title stroke="null">Layer 1</title><path stroke="null" transform="translate(43.66972732543945,49.908260345458984)" d="m53.02413-.39385h-3.34787v-11.78174c0-12.99528-12.01215-23.56354-26.78287-23.56354s-26.78287 10.56826-26.78287 23.56354v11.78174h-3.34787c-5.53509.0-10.04354 3.9626-10.04354 8.83629v41.23613c0 4.87375 4.50844 8.83635 10.04354 8.83635h60.26146c5.53509.0 10.04354-3.9626 10.04354-8.83635v-41.23613c0-4.87369-4.50844-8.83629-10.04354-8.83629zm-47.98596-11.78174c0-8.66354 8.00808-15.70901 17.85522-15.70901s17.85522 7.04547 17.85522 15.70901v11.78174h-35.71045v-11.78174zm22.31904 42.10794v8.9463c0 2.16784-1.99533 3.92727-4.46382 3.92727s-4.46382-1.75943-4.46382-3.92727v-8.9463c-2.65596-1.36272-4.46382-3.86829-4.46382-6.76271.0-4.33174 4.00407-7.85448 8.92764-7.85448s8.92764 3.52273 8.92764 7.85448c0 2.89441-1.80786 5.39999-4.46382 6.76271z" id="svg_1" fill="#ddd"/></g></svg>