<svg width="512" height="512" xmlns="http://www.w3.org/2000/svg"><g><title>background</title><path fill="none" id="canvas_background" d="M-1-1h514v514H-1z"/></g><g><title>Layer 1</title><g stroke="null" id="svg_20"><path stroke="null" id="svg_1" fill="#ddd" d="m175.4 182.06641c0 48.56243 39.96762 88.06641 89.1 88.06641s89.1-39.50398 89.1-88.06641-39.96762-88.06641-89.1-88.06641-89.1 39.50398-89.1 88.06641z"/><path stroke="null" id="svg_2" fill="#bbb" d="m353.60001 182.06641c0-48.56243-39.96762-88.06641-89.1-88.06641v176.13281c49.13238.0 89.1-39.50398 89.1-88.06641z"/><path stroke="null" id="svg_3" fill="#ddd" d="m116 418.21484c0 5.40858 4.42794 9.78516 9.9 9.78516h277.20001c5.47206.0 9.9-4.37657 9.9-9.78516.0-70.14-57.7368-128.51172-128.70001-128.51172h-39.6c-70.9632.0-128.70001 58.37172-128.70001 128.51172z"/><path stroke="null" id="svg_4" fill="#bbb" d="m284.30001 289.70313h-19.8v138.29688h138.60001c5.47206.0 9.9-4.37657 9.9-9.78516.0-70.14-57.7368-128.51172-128.70001-128.51172z"/><g stroke="null" id="svg_5"/><g stroke="null" id="svg_6"/><g stroke="null" id="svg_7"/><g stroke="null" id="svg_8"/><g stroke="null" id="svg_9"/><g stroke="null" id="svg_10"/><g stroke="null" id="svg_11"/><g stroke="null" id="svg_12"/><g stroke="null" id="svg_13"/><g stroke="null" id="svg_14"/><g stroke="null" id="svg_15"/><g stroke="null" id="svg_16"/><g stroke="null" id="svg_17"/><g stroke="null" id="svg_18"/><g stroke="null" id="svg_19"/></g></g></svg>