<svg width="512" height="512" xmlns="http://www.w3.org/2000/svg"><g><title>background</title><path fill="none" id="canvas_background" d="M-1-1h802v602H-1z"/></g><g><title>Layer 1</title><path id="svg_2" fill="#26c6da" d="m354.67188 128H157.32813c-16.17579.0-29.32813 13.15234-29.32813 29.32813v197.32812c0 16.19141 13.15234 29.34375 29.32813 29.34375h197.32812C370.84766 384 384 370.84766 384 354.67188V157.32813c0-16.17579-13.15234-29.32813-29.32812-29.32813zM312 266.67188h-45.32812V312c0 5.88672-4.76954 10.67188-10.67188 10.67188-5.88672.0-10.67187-4.78516-10.67187-10.67188v-45.32812H2e2c-5.88672.0-10.67187-4.78516-10.67187-10.67188S194.09766 245.32813 2e2 245.32813h45.32813V2e2c0-5.88672 4.76953-10.67187 10.67187-10.67187 5.88672.0 10.67188 4.78515 10.67188 10.67187v45.32813H312c5.88672.0 10.67188 4.78515 10.67188 10.67187S317.90234 266.67188 312 266.67188zm0 0"/></g></svg>