<svg width="464" height="464" xmlns="http://www.w3.org/2000/svg"><g><title>background</title><path fill="none" id="canvas_background" d="M-1-1h802v602H-1z"/></g><g><title>Layer 1</title><g id="svg_1"><path id="svg_2" fill="#f9ede0" d="m305.872 451.92c-2.416.816-4.848 1.608-7.296 2.336 2.456-.736 4.88-1.528 7.296-2.336z"/><path id="svg_3" fill="#f9ede0" d="m317.992 447.472c-2.608 1.04-5.216 2.064-7.872 3.008 2.656-.952 5.272-1.968 7.872-3.008z"/></g><circle id="svg_4" fill="#a4ffff" r="232" cy="232" cx="232"/><g id="svg_5"><path id="svg_6" fill="#f9ede0" d="m293.896 455.584c-2.368.656-4.752 1.28-7.16 1.864 2.408-.584 4.792-1.208 7.16-1.864z"/><path id="svg_7" fill="#f9ede0" d="m215.192 463.328c-2.832-.2-5.656-.416-8.448-.72 2.8.304 5.624.52 8.448.72z"/><path id="svg_8" fill="#f9ede0" d="m177.256 457.44c-2.4-.584-4.784-1.208-7.16-1.864 2.376.664 4.76 1.288 7.16 1.864z"/><path id="svg_9" fill="#f9ede0" d="m201.944 462c-2.536-.328-5.064-.672-7.576-1.08 2.504.408 5.04.744 7.576 1.08z"/><path id="svg_10" fill="#f9ede0" d="m232 464c-4.272.0-8.504-.136-12.72-.36 4.216.224 8.448.36 12.72.36z"/><path id="svg_11" fill="#f9ede0" d="m189.416 460.032c-2.432-.448-4.856-.928-7.256-1.456 2.4.528 4.824 1.008 7.256 1.456z"/><path id="svg_12" fill="#f9ede0" d="m142.608 446.128c-3.608-1.512-7.176-3.096-10.688-4.776 3.52 1.68 7.088 3.272 10.688 4.776z"/><path id="svg_13" fill="#f9ede0" d="m153.872 450.48c-2.648-.952-5.264-1.968-7.872-3.008 2.608 1.04 5.224 2.056 7.872 3.008z"/><path id="svg_14" fill="#f9ede0" d="m244.72 463.64c-4.216.224-8.448.36-12.72.36 4.272.0 8.504-.136 12.72-.36z"/><path id="svg_15" fill="#f9ede0" d="m257.256 462.608c-2.8.304-5.624.52-8.448.72 2.824-.2 5.648-.416 8.448-.72z"/><path id="svg_16" fill="#f9ede0" d="m281.848 458.576c-2.408.528-4.824 1.008-7.256 1.456 2.424-.448 4.848-.928 7.256-1.456z"/><path id="svg_17" fill="#f9ede0" d="m269.64 460.912c-2.512.408-5.04.752-7.576 1.08 2.528-.328 5.064-.664 7.576-1.08z"/><path id="svg_18" fill="#f9ede0" d="m332.032 441.368c-3.496 1.672-7.048 3.256-10.64 4.76 3.592-1.504 7.144-3.08 10.64-4.76z"/><path id="svg_19" fill="#f9ede0" d="m165.424 454.256c-2.456-.736-4.88-1.528-7.296-2.336 2.416.808 4.84 1.6 7.296 2.336z"/><path id="svg_20" fill="#f9ede0" d="m321.392 446.128c-1.12.472-2.264.888-3.392 1.336 1.12-.448 2.264-.864 3.392-1.336z"/><path id="svg_21" fill="#f9ede0" d="m332.352 441.224c-.104.048-.216.096-.32.144.104-.048.216-.088.32-.144z"/><path id="svg_22" fill="#f9ede0" d="m182.152 458.576c-1.64-.36-3.272-.736-4.896-1.128 1.624.392 3.256.768 4.896 1.128z"/><path id="svg_23" fill="#f9ede0" d="m194.36 460.912c-1.656-.272-3.304-.576-4.952-.88 1.656.304 3.296.616 4.952.88z"/><path id="svg_24" fill="#f9ede0" d="m219.28 463.64c-1.368-.072-2.728-.216-4.088-.312 1.368.096 2.72.24 4.088.312z"/><path id="svg_25" fill="#f9ede0" d="m206.744 462.608c-1.608-.176-3.2-.4-4.8-.608 1.6.208 3.192.432 4.8.608z"/><path id="svg_26" fill="#f9ede0" d="m131.928 441.352c-.088-.04-.184-.08-.272-.12.088.04.184.08.272.12z"/><path id="svg_27" fill="#f9ede0" d="m248.808 463.328c-1.368.096-2.72.24-4.088.312 1.368-.072 2.72-.216 4.088-.312z"/><path id="svg_28" fill="#f9ede0" d="m298.576 454.256c-1.552.464-3.112.896-4.68 1.328 1.568-.432 3.128-.864 4.68-1.328z"/><path id="svg_29" fill="#f9ede0" d="m310.128 450.48c-1.408.504-2.832.96-4.248 1.44 1.416-.48 2.84-.936 4.248-1.44z"/><path id="svg_30" fill="#f9ede0" d="m146.008 447.472c-1.128-.448-2.272-.872-3.392-1.336 1.12.464 2.264.88 3.392 1.336z"/><path id="svg_31" fill="#f9ede0" d="m158.128 451.92c-1.416-.48-2.848-.936-4.248-1.44 1.4.504 2.824.96 4.248 1.44z"/><path id="svg_32" fill="#f9ede0" d="m262.056 462c-1.6.208-3.192.44-4.8.608 1.608-.176 3.2-.4 4.8-.608z"/><path id="svg_33" fill="#f9ede0" d="m286.744 457.44c-1.624.392-3.256.768-4.896 1.128 1.64-.352 3.272-.728 4.896-1.128z"/><path id="svg_34" fill="#f9ede0" d="m274.584 460.032c-1.648.304-3.288.616-4.952.88 1.664-.264 3.304-.576 4.952-.88z"/><path id="svg_35" fill="#f9ede0" d="m170.104 455.584c-1.56-.432-3.128-.864-4.68-1.328 1.552.464 3.112.896 4.68 1.328z"/></g><path id="svg_36" fill="#fff" d="m285.104 247.952C310.952 230.744 328 201.376 328 168c0-53.016-42.984-96-96-96s-96 42.984-96 96c0 33.376 17.048 62.744 42.896 79.952.0.0.008.008.016.008-.008.0-.008-.008-.008-.008-61.872 18.648-110.048 68.864-125.56 132.04l.008.008c2.528 3.048 5.152 6.024 7.832 8.944.648.712 1.328 1.392 1.992 2.088 2.064 2.192 4.152 4.352 6.296 6.464.888.872 1.792 1.712 2.696 2.568 1.984 1.888 3.992 3.752 6.04 5.568 1.016.896 2.048 1.784 3.072 2.664 2.008 1.72 4.04 3.408 6.112 5.056 1.088.872 2.184 1.728 3.28 2.584 2.096 1.616 4.224 3.184 6.376 4.72 1.112.792 2.208 1.6 3.336 2.376 2.272 1.568 4.584 3.072 6.912 4.56 1.048.664 2.072 1.352 3.128 2.008 2.688 1.656 5.424 3.24 8.184 4.792.728.408 1.44.848 2.176 1.248 3.568 1.952 7.192 3.824 10.872 5.592.088.04.184.08.272.12 3.512 1.68 7.08 3.272 10.688 4.776 1.12.472 2.264.888 3.392 1.336 2.608 1.04 5.216 2.064 7.872 3.008 1.408.504 2.832.96 4.248 1.44 2.416.816 4.848 1.608 7.296 2.336 1.552.464 3.112.896 4.68 1.328 2.368.656 4.752 1.28 7.16 1.864 1.624.392 3.256.768 4.896 1.128 2.408.528 4.824 1.008 7.256 1.456 1.648.304 3.288.616 4.952.88 2.512.408 5.04.752 7.576 1.08 1.6.208 3.192.44 4.8.608 2.8.304 5.624.52 8.448.72 1.368.096 2.72.24 4.088.312 4.216.24 8.448.376 12.72.376s8.504-.136 12.72-.36c1.368-.072 2.728-.216 4.088-.312 2.832-.2 5.656-.416 8.448-.72 1.608-.176 3.2-.4 4.8-.608 2.536-.328 5.064-.672 7.576-1.08 1.656-.272 3.304-.576 4.952-.88 2.432-.448 4.856-.928 7.256-1.456 1.64-.36 3.272-.736 4.896-1.128 2.4-.584 4.784-1.208 7.16-1.864 1.56-.432 3.128-.864 4.68-1.328 2.456-.736 4.88-1.528 7.296-2.336 1.416-.48 2.848-.936 4.248-1.44 2.648-.952 5.264-1.968 7.872-3.008 1.128-.448 2.272-.872 3.392-1.336 3.592-1.504 7.144-3.08 10.64-4.76.104-.048.216-.096.32-.144 3.68-1.768 7.304-3.64 10.872-5.592.736-.4 1.448-.84 2.176-1.248 2.76-1.552 5.496-3.136 8.184-4.792 1.056-.648 2.088-1.336 3.128-2.008 2.328-1.488 4.64-3 6.912-4.56 1.12-.776 2.224-1.576 3.336-2.376 2.152-1.544 4.28-3.112 6.376-4.72 1.104-.848 2.192-1.712 3.28-2.584 2.064-1.648 4.104-3.336 6.112-5.056 1.032-.88 2.064-1.768 3.072-2.664 2.048-1.816 4.056-3.68 6.04-5.568.896-.856 1.808-1.704 2.696-2.568 2.144-2.112 4.24-4.272 6.296-6.464.656-.704 1.336-1.384 1.992-2.088 2.68-2.92 5.304-5.896 7.832-8.944l.008-.008c-15.504-63.184-63.68-113.4-125.552-132.048z"/><g id="svg_37"/><g id="svg_38"/><g id="svg_39"/><g id="svg_40"/><g id="svg_41"/><g id="svg_42"/><g id="svg_43"/><g id="svg_44"/><g id="svg_45"/><g id="svg_46"/><g id="svg_47"/><g id="svg_48"/><g id="svg_49"/><g id="svg_50"/><g id="svg_51"/></g></svg>