<svg width="55.752" height="55.752" xmlns="http://www.w3.org/2000/svg">

 <g>
  <title>background</title>
  <rect fill="none" id="canvas_background" height="602" width="802" y="-1" x="-1"/>
 </g>
 <g>
  <title>Layer 1</title>
  <g stroke="null" id="svg_20">
   <g stroke="null" id="svg_1">
    <path stroke="null" fill="#ffffff" id="svg_2" d="m46.97484,26.51999c-0.1522,-0.1432 -0.3207,-0.26406 -0.49572,-0.36918l-11.74566,-10.97272c-1.14636,-1.06995 -3.00422,-1.07046 -4.15112,0.00051c-1.14636,1.07046 -1.14636,2.80666 0,3.87813l10.11609,9.4498l-10.16718,9.49957c-1.1469,1.06995 -1.1469,2.80666 0,3.87813c0.57345,0.53472 1.3241,0.80234 2.07475,0.80234s1.50293,-0.26761 2.07475,-0.80335l11.79839,-11.02096c0.17502,-0.10512 0.34298,-0.22547 0.49572,-0.36918c0.58704,-0.54843 0.8686,-1.26851 0.85555,-1.98655c0.01359,-0.71855 -0.26852,-1.43964 -0.85555,-1.98655z"/>
   </g>
   <g stroke="null" id="svg_3"/>
   <g stroke="null" id="svg_4"/>
   <g stroke="null" id="svg_5"/>
   <g stroke="null" id="svg_6"/>
   <g stroke="null" id="svg_7"/>
   <g stroke="null" id="svg_8"/>
   <g stroke="null" id="svg_9"/>
   <g stroke="null" id="svg_10"/>
   <g stroke="null" id="svg_11"/>
   <g stroke="null" id="svg_12"/>
   <g stroke="null" id="svg_13"/>
   <g stroke="null" id="svg_14"/>
   <g stroke="null" id="svg_15"/>
   <g stroke="null" id="svg_16"/>
   <g stroke="null" id="svg_17"/>
   <g stroke="null" id="svg_19">
    <path stroke="null" fill="#ffffff" id="svg_18" d="m30.60027,26.71042c-0.1522,-0.1432 -0.3207,-0.26406 -0.49572,-0.36918l-11.74566,-10.97272c-1.14636,-1.06995 -3.00422,-1.07046 -4.15112,0.00051c-1.14636,1.07046 -1.14636,2.80666 0,3.87813l10.11609,9.4498l-10.16718,9.49957c-1.1469,1.06995 -1.1469,2.80666 0,3.87813c0.57345,0.53472 1.3241,0.80234 2.07475,0.80234s1.50293,-0.26761 2.07475,-0.80335l11.79839,-11.02096c0.17502,-0.10512 0.34298,-0.22547 0.49572,-0.36918c0.58704,-0.54843 0.8686,-1.26851 0.85555,-1.98655c0.01359,-0.71855 -0.26852,-1.43964 -0.85555,-1.98655z"/>
   </g>
  </g>
 </g>
</svg>