<svg width="512" height="512" xmlns="http://www.w3.org/2000/svg">
 <g>
  <title>background</title>
  <path height="514" width="514" y="-1" x="-1" d="m-1,-1l802,0l0,602l-802,0l0,-602z" id="canvas_background" fill="none"/>
 </g>

 <g>
  <title>Layer 1</title>
  <g fill-opacity="0.77" id="svg_1" stroke="null">
   <path d="m380.62615,194.84659c-11.25943,-35.12461 -40.91155,-63.73185 -77.31907,-74.59453c-12.7614,-3.80275 -25.89814,-5.79375 -38.65953,-5.79375c-26.0858,0 -51.23264,7.78535 -72.25142,22.99455c-31.15408,22.08807 -49.73255,57.39373 -49.73255,94.69099c0,25.70916 8.44504,50.15275 24.39679,70.61193l97.58718,120.70252l97.58718,-120.70252c23.83317,-30.7799 30.58983,-70.06816 18.39143,-107.90919l-0.00001,0zm-115.9786,100.6664c-36.21986,0 -65.68368,-28.42558 -65.68368,-63.36914s29.46382,-63.36914 65.68368,-63.36914s65.68368,28.42558 65.68368,63.36914s-29.46382,63.36914 -65.68368,63.36914z" fill="#ff6060" id="svg_2" stroke="null"/>
  </g>
  <path fill-opacity="0.77" d="m363.23472,302.75578l-97.58718,120.70252l0,-127.94531c36.21986,0 65.68368,-28.42558 65.68368,-63.36914s-29.46382,-63.36914 -65.68368,-63.36914l0,-54.3164c12.7614,0 25.89814,1.9916 38.65953,5.79375c36.40752,10.86268 66.05964,39.46992 77.31907,74.59453c12.1984,37.84103 5.44174,77.12929 -18.39143,107.90919l0.00001,0z" fill="#ff5656" id="svg_3" stroke="null"/>
  <g id="svg_4" stroke="null"/>
  <g id="svg_5" stroke="null"/>
  <g id="svg_6" stroke="null"/>
  <g id="svg_7" stroke="null"/>
  <g id="svg_8" stroke="null"/>
  <g id="svg_9" stroke="null"/>
  <g id="svg_10" stroke="null"/>
  <g id="svg_11" stroke="null"/>
  <g id="svg_12" stroke="null"/>
  <g id="svg_13" stroke="null"/>
  <g id="svg_14" stroke="null"/>
  <g id="svg_15" stroke="null"/>
  <g id="svg_16" stroke="null"/>
  <g id="svg_17" stroke="null"/>
  <g id="svg_18" stroke="null"/>
 </g>
</svg>