<svg width="512" height="512" xmlns="http://www.w3.org/2000/svg"><g><title>background</title><path fill="none" id="canvas_background" d="M-1-1h514v514H-1z"/></g><g><title>Layer 1</title><g stroke="null" id="svg_1"><path stroke="null" id="svg_2" fill="#009ae4" d="m273.07782 346.67231-53.62322 53.89702c-1.60493.97111-3.69205 3.39942-8.02735 2.10407-2.24712-.80926-4.97696-3.39942-5.45806-6.3122v-.16185l-15.41304-92.90264 12.5232-9.54869c1.62152.9587 32.56642 19.25167 30.66394 18.12734l39.33401 23.30659c3.05093 3.23649 3.05093 8.25388 54e-5 11.49036z"/><path stroke="null" id="svg_3" fill="#25d9f8" d="m398.8439 152.67143-48.70353 243.85163c-.48164 2.58962-2.4082 4.85554-4.97696 5.82665-.96328.48555-1.92656.64741-2.88985.64741-1.60547.0-3.21094-.48555-4.65586-1.45666-1.6151-1.16317-119.90772-86.34443-112.38288-80.92564-71.62535-35.76913-34.26447-16.96903-95.73951-47.90798-2.88985-1.45666-4.49532-4.36998-4.49532-7.44516.16055-3.23703 1.92656-5.9885 4.81641-7.28331l257.94975-114.37059c2.7293-1.13296 5.94024-.80926 8.1879 1.13296.32109.3237.80273.80926 1.12383 1.13296 1.60547 1.94222 2.24766 4.36998 1.76602 6.79775z"/><path stroke="null" id="svg_4" fill="#00c0f1" d="m397.07788 145.87367-163.33407 166.00116-8.50845 8.73943-13.80757 82.0586c-2.24712-.80926-4.97696-3.39942-5.45806-6.3122v-.16185l-15.41304-92.90264 12.5232-9.54869 193.998-147.87381z"/></g></g></svg>