<svg width="512" height="512" xmlns="http://www.w3.org/2000/svg">
 <g>
  <title>background</title>
  <rect x="-1" y="-1" width="514" height="514" id="canvas_background" fill="none"/>
 </g>

 <g>
  <title>Layer 1</title>
  <path fill="#ffafcc" stroke="null" id="svg_11" d="m338.29101,137.03483c-25.11277,0 -46.93135,12.37659 -63.09699,35.79245c-3.18333,4.61186 -5.8456,9.21825 -8.03895,13.49974c-2.19277,-4.28088 -4.85503,-8.88788 -8.03895,-13.49974c-16.16564,-23.41586 -37.98422,-35.79245 -63.09699,-35.79245c-46.59938,0 -80.62074,40.1652 -80.62074,89.14344c0,54.38045 42.43674,91.32647 106.67309,147.2505c12.49859,10.88169 45.08359,39.7898 45.08359,39.7898s32.585,-28.90812 45.08359,-39.78919c64.23635,-55.92464 106.67309,-92.87066 106.67309,-147.25111c0,-48.98554 -34.02669,-89.14344 -80.62074,-89.14344zm-37.55622,222.47439c-10.77176,9.37827 -21.85948,19.03033 -33.57972,29.47578c-11.72024,-10.44484 -22.80796,-20.09751 -33.57972,-29.47578c-60.97595,-53.08633 -100.39297,-87.29627 -100.39297,-133.33095c0,-40.41405 27.01387,-70.89068 62.83675,-70.89068c19.22034,0 35.47016,9.31195 48.29893,27.67788c10.1185,14.48661 14.226,29.36261 14.26631,29.51167l8.51023,31.81213l8.63116,-31.81213c0.04031,-0.14906 4.14782,-15.02506 14.26631,-29.51167c12.82877,-18.36593 29.0786,-27.67788 48.29893,-27.67788c35.82288,0 62.83675,30.47664 62.83675,70.89068c0,52.15057 -57.21167,95.73695 -100.39297,133.33095z"/>
  <g stroke="null" id="svg_24">
   <g stroke="null" transform="matrix(0.21545522591439953,0,0,0.20942780918908332,179.88775044541438,308.06314873485775) " id="svg_21" fill="#f44336">
    <path fill="#DDDDDD" stroke="null" id="svg_22" d="m581.46668,42.82082l-286.61328,-286.61328c-12.5,-12.50001 -32.76562,-12.50001 -45.24609,0l-15.10547,15.08203c-12.5,12.5039 -12.5,32.76953 0,45.25l286.61328,286.61328c12.50391,12.5 32.76953,12.5 45.25,0l15.08203,-15.08203c12.52344,-12.48047 12.52344,-32.75 0.01953,-45.25zm0,0"/>
    <path fill="#DDDDDD" stroke="null" id="svg_23" d="m521.11512,-243.79246l-286.61328,286.61328c-12.5,12.5 -12.5,32.76953 0,45.25l15.08203,15.08203c12.50391,12.5 32.76953,12.5 45.25,0l286.63281,-286.59375c12.50391,-12.5 12.50391,-32.76563 0,-45.2461l-15.08203,-15.08203c-12.5,-12.52344 -32.76562,-12.52344 -45.26953,-0.02343zm0,0"/>
   </g>
  </g>
 </g>
</svg>