<svg width="512" height="512" xmlns="http://www.w3.org/2000/svg"><g><title>background</title><path height="514" width="514" y="-1" x="-1" fill="none" id="canvas_background" d="m-1-1h514v514H-1V-1z"/></g><g><title>Layer 1</title><path d="m338.29101 137.03483c-25.11277.0-46.93135 12.37659-63.09699 35.79245-3.18333 4.61186-5.8456 9.21825-8.03895 13.49974-2.19277-4.28088-4.85503-8.88788-8.03895-13.49974-16.16564-23.41586-37.98422-35.79245-63.09699-35.79245-46.59938.0-80.62074 40.1652-80.62074 89.14344.0 54.38045 42.43674 91.32647 106.67309 147.2505 12.49859 10.88169 45.08359 39.7898 45.08359 39.7898s32.585-28.90812 45.08359-39.78919c64.23635-55.92464 106.67309-92.87066 106.67309-147.25111.0-48.98554-34.02669-89.14344-80.62074-89.14344zm-37.55622 222.47439c-10.77176 9.37827-21.85948 19.03033-33.57972 29.47578-11.72024-10.44484-22.80796-20.09751-33.57972-29.47578-60.97595-53.08633-100.39297-87.29627-100.39297-133.33095.0-40.41405 27.01387-70.89068 62.83675-70.89068 19.22034.0 35.47016 9.31195 48.29893 27.67788 10.1185 14.48661 14.226 29.36261 14.26631 29.51167l8.51023 31.81213 8.63116-31.81213c.04031-.14906 4.14782-15.02506 14.26631-29.51167 12.82877-18.36593 29.0786-27.67788 48.29893-27.67788 35.82288.0 62.83675 30.47664 62.83675 70.89068.0 52.15057-57.21167 95.73695-100.39297 133.33095h1e-5z" id="svg_11" stroke="null" fill="#ffafcc"/></g></svg>