<svg id="Layer_1" xmlns="http://www.w3.org/2000/svg" xmlns:xlink="http://www.w3.org/1999/xlink" viewBox="0 0 512 512" style="enable-background:new 0 0 512 512"><path style="fill:#45c1f1" d="M121 135c0 74.443 60.557 135 135 135s135-60.557 135-135S330.443.0 256 0 121 60.557 121 135z"/><path style="fill:#44a4ec" d="M391 135C391 60.557 330.443.0 256 0v270C330.443 270 391 209.443 391 135z"/><path style="fill:#45c1f1" d="M31 497c0 8.291 6.709 15 15 15h420c8.291.0 15-6.709 15-15 0-107.52-87.48-197-195-197h-60C118.48 3e2 31 389.48 31 497z"/><path style="fill:#44a4ec" d="M286 3e2h-30v212h210c8.291.0 15-6.709 15-15C481 389.48 393.52 3e2 286 3e2z"/><g/><g/><g/><g/><g/><g/><g/><g/><g/><g/><g/><g/><g/><g/><g/></svg>